<svg version="1.1" viewBox="0.0 0.0 1200.0 1200.0" fill="none" stroke="none" stroke-linecap="square" stroke-miterlimit="10" xmlns:xlink="http://www.w3.org/1999/xlink" xmlns="http://www.w3.org/2000/svg"><clipPath id="p.0"><path d="m0 0l1200.0 0l0 1200.0l-1200.0 0l0 -1200.0z" clip-rule="nonzero"/></clipPath><g clip-path="url(#p.0)"><path fill="#000000" fill-opacity="0.0" d="m0 0l1200.0 0l0 1200.0l-1200.0 0z" fill-rule="evenodd"/><path fill="#c7a94a" d="m16.002033 713.2157l0 0c0 -24.46045 19.829128 -44.28961 44.2896 -44.28961l323.89325 0c11.746338 0 23.011566 4.66626 31.317474 12.972168c8.305908 8.305908 12.972137 19.571106 12.972137 31.317444l0 177.15308c0 24.46051 -19.829132 44.28961 -44.28961 44.28961l-323.89325 0c-24.460472 0 -44.2896 -19.829102 -44.2896 -44.28961z" fill-rule="evenodd"/><path stroke="#b9686c" stroke-width="1.0" stroke-linejoin="round" stroke-linecap="butt" d="m16.002033 713.2157l0 0c0 -24.46045 19.829128 -44.28961 44.2896 -44.28961l323.89325 0c11.746338 0 23.011566 4.66626 31.317474 12.972168c8.305908 8.305908 12.972137 19.571106 12.972137 31.317444l0 177.15308c0 24.46051 -19.829132 44.28961 -44.28961 44.28961l-323.89325 0c-24.460472 0 -44.2896 -19.829102 -44.2896 -44.28961z" fill-rule="evenodd"/><path fill="#734d77" d="m16.002033 402.0044l0 0c0 -24.46045 19.829128 -44.28958 44.2896 -44.28958l323.89325 0c11.746338 0 23.011566 4.6661987 31.317474 12.972107c8.305908 8.305908 12.972137 19.571167 12.972137 31.317474l0 177.15308c0 24.46051 -19.829132 44.28961 -44.28961 44.28961l-323.89325 0c-24.460472 0 -44.2896 -19.829102 -44.2896 -44.28961z" fill-rule="evenodd"/><path fill="#4b4b9f" d="m16.002033 94.5385l0 0c0 -24.460464 19.829128 -44.289597 44.2896 -44.289597l323.89325 0c11.746338 0 23.011566 4.666214 31.317474 12.972122c8.305908 8.305916 12.972137 19.571144 12.972137 31.317474l0 177.15309c0 24.46048 -19.829132 44.28958 -44.28961 44.28958l-323.89325 0c-24.460472 0 -44.2896 -19.829102 -44.2896 -44.28958z" fill-rule="evenodd"/><path fill="#000000" fill-opacity="0.0" d="m385.25708 69.99669l830.7401 0l0 226.23622l-830.7401 0z" fill-rule="evenodd"/><path fill="#7a621d" d="m449.47583 168.19669l-4.796875 0l0 -33.859375l-11.890625 0l0 -4.21875l28.53125 0l0 4.21875l-11.84375 0l0 33.859375zm41.822266 -14.34375q0 3.578125 -0.9375 6.328125q-0.9375 2.734375 -2.671875 4.65625q-1.734375 1.921875 -4.21875 2.90625q-2.46875 0.984375 -5.515625 0.984375q-2.828125 0 -5.234375 -0.984375q-2.390625 -0.984375 -4.15625 -2.90625q-1.75 -1.921875 -2.734375 -4.65625q-0.984375 -2.75 -0.984375 -6.328125q0 -4.75 1.59375 -8.03125q1.59375 -3.28125 4.578125 -5.0q3.0 -1.734375 7.109375 -1.734375q3.890625 0 6.84375 1.734375q2.96875 1.71875 4.640625 5.0q1.6875 3.28125 1.6875 8.03125zm-21.609375 0q0 3.359375 0.875 5.84375q0.890625 2.46875 2.75 3.8125q1.875 1.328125 4.75 1.328125q2.875 0 4.734375 -1.328125q1.875 -1.34375 2.75 -3.8125q0.890625 -2.484375 0.890625 -5.84375q0 -3.421875 -0.90625 -5.8125q-0.90625 -2.40625 -2.75 -3.703125q-1.84375 -1.3125 -4.765625 -1.3125q-4.375 0 -6.359375 2.890625q-1.96875 2.875 -1.96875 7.9375zm42.607178 -14.765625q5.28125 0 8.5 3.671875q3.234375 3.671875 3.234375 11.09375q0 4.84375 -1.46875 8.1875q-1.453125 3.328125 -4.09375 5.015625q-2.640625 1.671875 -6.21875 1.671875q-2.1874695 0 -3.8905945 -0.578125q-1.703125 -0.59375 -2.90625 -1.515625q-1.203125 -0.9375 -2.0625 -2.0625l-0.3125 0q0.109375 0.90625 0.203125 2.296875q0.109375 1.375 0.109375 2.390625l0 11.734375l-4.6875 0l0 -41.375l3.84375 0l0.640625 3.890625l0.203125 0q0.859375 -1.234375 2.0625 -2.234375q1.203125 -1.015625 2.875 -1.59375q1.6875 -0.59375 3.9687195 -0.59375zm-0.8437195 3.9375q-2.875 0 -4.640625 1.09375q-1.765625 1.09375 -2.5625 3.28125q-0.796875 2.1875 -0.859375 5.546875l0 0.90625q0 3.515625 0.75 5.96875q0.75 2.453125 2.53125 3.734375q1.796875 1.28125 4.890625 1.28125q2.6093445 0 4.2812195 -1.4375q1.6875 -1.4375 2.515625 -3.921875q0.828125 -2.484375 0.828125 -5.6875q0 -4.90625 -1.90625 -7.828125q-1.890625 -2.9375 -5.8280945 -2.9375zm17.656097 12.953125l0 -4.15625l12.890625 0l0 4.15625l-12.890625 0zm32.89038 -16.890625q0.8125 0 1.734375 0.078125q0.9375 0.078125 1.625 0.234375l-0.578125 4.3125q-0.703125 -0.15625 -1.53125 -0.25q-0.8125 -0.109375 -1.5625 -0.109375q-1.65625 0 -3.15625 0.6875q-1.484375 0.6875 -2.65625 1.953125q-1.171875 1.25 -1.84375 3.015625q-0.671875 1.75 -0.671875 3.9375l0 15.25l-4.6875 0l0 -28.578125l3.84375 0l0.53125 5.21875l0.21875 0q0.90625 -1.59375 2.171875 -2.90625q1.28125 -1.3125 2.9375 -2.078125q1.65625 -0.765625 3.625 -0.765625zm19.524475 0.046875q5.21875 0 7.71875 2.296875q2.515625 2.28125 2.515625 7.296875l0 19.46875l-3.40625 0l-0.90625 -4.046875l-0.21875 0q-1.21875 1.546875 -2.53125 2.59375q-1.3125 1.03125 -3.0 1.5q-1.671875 0.484375 -4.0625 0.484375q-2.5625 0 -4.625 -0.90625q-2.046875 -0.90625 -3.21875 -2.796875q-1.171875 -1.890625 -1.171875 -4.78125q0 -4.265625 3.359375 -6.578125q3.359375 -2.328125 10.34375 -2.53125l4.859375 -0.15625l0 -1.71875q0 -3.5625 -1.546875 -4.953125q-1.546875 -1.390625 -4.375 -1.390625q-2.234375 0 -4.265625 0.671875q-2.03125 0.671875 -3.78125 1.515625l-1.453125 -3.515625q1.875 -1.015625 4.421875 -1.734375q2.5625 -0.71875 5.34375 -0.71875zm1.390625 15.25q-5.34375 0.21875 -7.390625 1.71875q-2.046875 1.484375 -2.046875 4.203125q0 2.390625 1.453125 3.515625q1.46875 1.125 3.765625 1.125q3.625 0 6.015625 -2.0q2.40625 -2.0 2.40625 -6.15625l0 -2.5625l-4.203125 0.15625zm31.463928 -15.296875q5.109375 0 7.71875 2.484375q2.625 2.46875 2.625 8.015625l0 18.609375l-4.640625 0l0 -18.296875q0 -3.46875 -1.546875 -5.171875q-1.546875 -1.703125 -4.859375 -1.703125q-4.734375 0 -6.5625 2.671875q-1.8125 2.65625 -1.8125 7.671875l0 14.828125l-4.6875 0l0 -28.578125l3.78125 0l0.703125 3.890625l0.265625 0q0.953125 -1.5 2.359375 -2.484375q1.421875 -0.984375 3.125 -1.453125q1.71875 -0.484375 3.53125 -0.484375zm23.831726 9.75q0 0.859375 -0.078125 2.25q-0.078125 1.375 -0.140625 2.390625l0.21875 0q0.328125 -0.421875 0.953125 -1.21875q0.640625 -0.8125 1.3125 -1.625q0.671875 -0.828125 1.140625 -1.375l9.125 -9.640625l5.5 0l-11.578125 12.203125l12.375 16.375l-5.65625 0l-9.921875 -13.328125l-3.25 2.828125l0 10.5l-4.640625 0l0 -40.53125l4.640625 0l0 21.171875zm34.883423 -9.75q3.671875 0 6.3125 1.59375q2.640625 1.59375 4.046875 4.5q1.421875 2.90625 1.421875 6.796875l0 2.828125l-19.578125 0q0.109375 4.859375 2.484375 7.390625q2.375 2.53125 6.640625 2.53125q2.71875 0 4.828125 -0.5q2.109375 -0.515625 4.34375 -1.46875l0 4.109375q-2.1875 0.953125 -4.328125 1.40625q-2.125 0.453125 -5.0625 0.453125q-4.046875 0 -7.171875 -1.640625q-3.109375 -1.65625 -4.84375 -4.9375q-1.734375 -3.28125 -1.734375 -8.03125q0 -4.6875 1.5625 -8.046875q1.578125 -3.359375 4.421875 -5.171875q2.859375 -1.8125 6.65625 -1.8125zm-0.0625 3.828125q-3.359375 0 -5.3125 2.171875q-1.9375 2.15625 -2.3125 5.984375l14.5625 0q0 -2.453125 -0.75 -4.265625q-0.75 -1.8125 -2.265625 -2.84375q-1.515625 -1.046875 -3.921875 -1.046875zm29.233215 25.8125q-5.34375 0 -8.546875 -3.703125q-3.1875 -3.703125 -3.1875 -11.0625q0 -7.359375 3.21875 -11.109375q3.234375 -3.765625 8.5625 -3.765625q2.234375 0 3.890625 0.5625q1.65625 0.546875 2.875 1.515625q1.234375 0.953125 2.09375 2.125l0.3125 0q-0.046875 -0.6875 -0.1875 -2.046875q-0.125 -1.359375 -0.125 -2.15625l0 -11.421875l4.6875 0l0 40.53125l-3.78125 0l-0.703125 -3.84375l-0.203125 0q-0.859375 1.234375 -2.09375 2.21875q-1.21875 0.984375 -2.90625 1.578125q-1.671875 0.578125 -3.90625 0.578125zm0.734375 -3.890625q4.53125 0 6.375 -2.46875q1.84375 -2.484375 1.84375 -7.5l0 -0.859375q0 -5.328125 -1.765625 -8.171875q-1.75 -2.859375 -6.5 -2.859375q-3.78125 0 -5.6875 3.015625q-1.890625 3.0 -1.890625 8.078125q0 5.109375 1.890625 7.9375q1.90625 2.828125 5.734375 2.828125zm52.740173 -31.03125q-3.03125 0 -5.484375 1.046875q-2.453125 1.03125 -4.171875 3.03125q-1.703125 2.0 -2.609375 4.859375q-0.90625 2.84375 -0.90625 6.421875q0 4.6875 1.46875 8.15625q1.46875 3.46875 4.375 5.34375q2.90625 1.859375 7.28125 1.859375q2.5 0 4.734375 -0.421875q2.25 -0.4375 4.390625 -1.078125l0 4.15625q-2.140625 0.796875 -4.40625 1.171875q-2.265625 0.375 -5.40625 0.375q-5.8125 0 -9.71875 -2.390625q-3.890625 -2.40625 -5.84375 -6.828125q-1.9375 -4.4375 -1.9375 -10.40625q0 -4.3125 1.203125 -7.890625q1.203125 -3.578125 3.515625 -6.1875q2.328125 -2.609375 5.734375 -4.015625q3.421875 -1.421875 7.84375 -1.421875q2.9375 0 5.65625 0.59375q2.71875 0.578125 4.84375 1.640625l-1.921875 4.0625q-1.75 -0.796875 -3.921875 -1.4375q-2.15625 -0.640625 -4.71875 -0.640625zm41.60956 20.046875q0 3.578125 -0.9375 6.328125q-0.9375 2.734375 -2.671875 4.65625q-1.734375 1.921875 -4.21875 2.90625q-2.46875 0.984375 -5.515625 0.984375q-2.828125 0 -5.234375 -0.984375q-2.390625 -0.984375 -4.15625 -2.90625q-1.75 -1.921875 -2.734375 -4.65625q-0.984375 -2.75 -0.984375 -6.328125q0 -4.75 1.59375 -8.03125q1.59375 -3.28125 4.578125 -5.0q3.0 -1.734375 7.109375 -1.734375q3.890625 0 6.84375 1.734375q2.96875 1.71875 4.640625 5.0q1.6875 3.28125 1.6875 8.03125zm-21.609375 0q0 3.359375 0.875 5.84375q0.890625 2.46875 2.75 3.8125q1.875 1.328125 4.75 1.328125q2.875 0 4.734375 -1.328125q1.875 -1.34375 2.75 -3.8125q0.890625 -2.484375 0.890625 -5.84375q0 -3.421875 -0.90625 -5.8125q-0.90625 -2.40625 -2.75 -3.703125q-1.84375 -1.3125 -4.765625 -1.3125q-4.375 0 -6.359375 2.890625q-1.96875 2.875 -1.96875 7.9375zm42.779053 -14.765625q5.109375 0 7.71875 2.484375q2.625 2.46875 2.625 8.015625l0 18.609375l-4.640625 0l0 -18.296875q0 -3.46875 -1.546875 -5.171875q-1.546875 -1.703125 -4.859375 -1.703125q-4.734375 0 -6.5625 2.671875q-1.8125 2.65625 -1.8125 7.671875l0 14.828125l-4.6875 0l0 -28.578125l3.78125 0l0.703125 3.890625l0.265625 0q0.953125 -1.5 2.359375 -2.484375q1.421875 -0.984375 3.125 -1.453125q1.71875 -0.484375 3.53125 -0.484375zm29.331726 29.640625q-5.34375 0 -8.546875 -3.703125q-3.1875 -3.703125 -3.1875 -11.0625q0 -7.359375 3.21875 -11.109375q3.234375 -3.765625 8.5625 -3.765625q2.234375 0 3.890625 0.5625q1.65625 0.546875 2.875 1.515625q1.234375 0.953125 2.09375 2.125l0.3125 0q-0.046875 -0.6875 -0.1875 -2.046875q-0.125 -1.359375 -0.125 -2.15625l0 -11.421875l4.6875 0l0 40.53125l-3.78125 0l-0.703125 -3.84375l-0.203125 0q-0.859375 1.234375 -2.09375 2.21875q-1.21875 0.984375 -2.90625 1.578125q-1.671875 0.578125 -3.90625 0.578125zm0.734375 -3.890625q4.53125 0 6.375 -2.46875q1.84375 -2.484375 1.84375 -7.5l0 -0.859375q0 -5.328125 -1.765625 -8.171875q-1.75 -2.859375 -6.5 -2.859375q-3.78125 0 -5.6875 3.015625q-1.890625 3.0 -1.890625 8.078125q0 5.109375 1.890625 7.9375q1.90625 2.828125 5.734375 2.828125zm26.609253 -25.21875l0 28.578125l-4.6875 0l0 -28.578125l4.6875 0zm-2.28125 -10.71875q1.0625 0 1.890625 0.71875q0.828125 0.71875 0.828125 2.265625q0 1.484375 -0.828125 2.234375q-0.828125 0.75 -1.890625 0.75q-1.171875 0 -1.984375 -0.75q-0.796875 -0.75 -0.796875 -2.234375q0 -1.546875 0.796875 -2.265625q0.8125 -0.71875 1.984375 -0.71875zm20.899231 35.984375q1.0625 0 2.1875 -0.171875q1.125 -0.1875 1.8125 -0.40625l0 3.578125q-0.75 0.359375 -2.140625 0.59375q-1.375 0.25 -2.65625 0.25q-2.25 0 -4.140625 -0.765625q-1.890625 -0.78125 -3.0625 -2.703125q-1.171875 -1.921875 -1.171875 -5.375l0 -16.640625l-4.046875 0l0 -2.25l4.09375 -1.859375l1.875 -6.078125l2.765625 0l0 6.5625l8.265625 0l0 3.625l-8.265625 0l0 16.53125q0 2.609375 1.25 3.859375q1.265625 1.25 3.234375 1.25zm14.39209 -25.265625l0 28.578125l-4.6875 0l0 -28.578125l4.6875 0zm-2.28125 -10.71875q1.0625 0 1.890625 0.71875q0.828125 0.71875 0.828125 2.265625q0 1.484375 -0.828125 2.234375q-0.828125 0.75 -1.890625 0.75q-1.171875 0 -1.984375 -0.75q-0.796875 -0.75 -0.796875 -2.234375q0 -1.546875 0.796875 -2.265625q0.8125 -0.71875 1.984375 -0.71875zm36.211792 24.953125q0 3.578125 -0.9375 6.328125q-0.9375 2.734375 -2.671875 4.65625q-1.734375 1.921875 -4.21875 2.90625q-2.46875 0.984375 -5.515625 0.984375q-2.828125 0 -5.234375 -0.984375q-2.390625 -0.984375 -4.15625 -2.90625q-1.75 -1.921875 -2.734375 -4.65625q-0.984375 -2.75 -0.984375 -6.328125q0 -4.75 1.59375 -8.03125q1.59375 -3.28125 4.578125 -5.0q3.0 -1.734375 7.109375 -1.734375q3.890625 0 6.84375 1.734375q2.96875 1.71875 4.640625 5.0q1.6875 3.28125 1.6875 8.03125zm-21.609375 0q0 3.359375 0.875 5.84375q0.890625 2.46875 2.75 3.8125q1.875 1.328125 4.75 1.328125q2.875 0 4.734375 -1.328125q1.875 -1.34375 2.75 -3.8125q0.890625 -2.484375 0.890625 -5.84375q0 -3.421875 -0.90625 -5.8125q-0.90625 -2.40625 -2.75 -3.703125q-1.84375 -1.3125 -4.765625 -1.3125q-4.375 0 -6.359375 2.890625q-1.96875 2.875 -1.96875 7.9375zm42.779053 -14.765625q5.109375 0 7.71875 2.484375q2.625 2.46875 2.625 8.015625l0 18.609375l-4.640625 0l0 -18.296875q0 -3.46875 -1.546875 -5.171875q-1.546875 -1.703125 -4.859375 -1.703125q-4.734375 0 -6.5625 2.671875q-1.8125 2.65625 -1.8125 7.671875l0 14.828125l-4.6875 0l0 -28.578125l3.78125 0l0.703125 3.890625l0.265625 0q0.953125 -1.5 2.359375 -2.484375q1.421875 -0.984375 3.125 -1.453125q1.71875 -0.484375 3.53125 -0.484375zm46.22827 4.15625l-7.203125 0l0 24.953125l-4.6875 0l0 -24.953125l-5.015625 0l0 -2.1875l5.015625 -1.609375l0 -1.640625q0 -3.6875 1.09375 -5.96875q1.09375 -2.296875 3.171875 -3.359375q2.078125 -1.078125 5.015625 -1.078125q1.703125 0 3.109375 0.296875q1.421875 0.296875 2.4375 0.65625l-1.234375 3.6875q-0.84375 -0.265625 -1.96875 -0.53125q-1.125 -0.265625 -2.296875 -0.265625q-2.34375 0 -3.5 1.578125q-1.140625 1.5625 -1.140625 4.921875l0 1.875l7.203125 0l0 3.625zm30.032349 10.609375q0 3.578125 -0.9375 6.328125q-0.9375 2.734375 -2.671875 4.65625q-1.734375 1.921875 -4.21875 2.90625q-2.46875 0.984375 -5.515625 0.984375q-2.828125 0 -5.234375 -0.984375q-2.390625 -0.984375 -4.15625 -2.90625q-1.75 -1.921875 -2.734375 -4.65625q-0.984375 -2.75 -0.984375 -6.328125q0 -4.75 1.59375 -8.03125q1.59375 -3.28125 4.578125 -5.0q3.0 -1.734375 7.109375 -1.734375q3.890625 0 6.84375 1.734375q2.96875 1.71875 4.640625 5.0q1.6875 3.28125 1.6875 8.03125zm-21.609375 0q0 3.359375 0.875 5.84375q0.890625 2.46875 2.75 3.8125q1.875 1.328125 4.75 1.328125q2.875 0 4.734375 -1.328125q1.875 -1.34375 2.75 -3.8125q0.890625 -2.484375 0.890625 -5.84375q0 -3.421875 -0.90625 -5.8125q-0.90625 -2.40625 -2.75 -3.703125q-1.84375 -1.3125 -4.765625 -1.3125q-4.375 0 -6.359375 2.890625q-1.96875 2.875 -1.96875 7.9375zm42.341553 -14.765625q0.8125 0 1.734375 0.078125q0.9375 0.078125 1.625 0.234375l-0.578125 4.3125q-0.703125 -0.15625 -1.53125 -0.25q-0.8125 -0.109375 -1.5625 -0.109375q-1.65625 0 -3.15625 0.6875q-1.484375 0.6875 -2.65625 1.953125q-1.171875 1.25 -1.84375 3.015625q-0.671875 1.75 -0.671875 3.9375l0 15.25l-4.6875 0l0 -28.578125l3.84375 0l0.53125 5.21875l0.21875 0q0.90625 -1.59375 2.171875 -2.90625q1.28125 -1.3125 2.9375 -2.078125q1.65625 -0.765625 3.625 -0.765625zm53.70227 9.703125q0 6.390625 -2.375 10.71875q-2.359375 4.3125 -6.796875 6.5q-4.421875 2.1875 -10.71875 2.1875l-10.609375 0l0 -38.078125l11.734375 0q5.765625 0 9.96875 2.140625q4.21875 2.125 6.5 6.265625q2.296875 4.125 2.296875 10.265625zm-5.0625 0.15625q0 -5.0625 -1.6875 -8.3125q-1.671875 -3.265625 -4.90625 -4.828125q-3.21875 -1.578125 -7.796875 -1.578125l-6.25 0l0 29.859375l5.171875 0q7.734375 0 11.59375 -3.8125q3.875 -3.8125 3.875 -11.328125zm26.179443 -9.859375q0.8125 0 1.734375 0.078125q0.9375 0.078125 1.625 0.234375l-0.578125 4.3125q-0.703125 -0.15625 -1.53125 -0.25q-0.8125 -0.109375 -1.5625 -0.109375q-1.65625 0 -3.15625 0.6875q-1.484375 0.6875 -2.65625 1.953125q-1.171875 1.25 -1.84375 3.015625q-0.671875 1.75 -0.671875 3.9375l0 15.25l-4.6875 0l0 -28.578125l3.84375 0l0.53125 5.21875l0.21875 0q0.90625 -1.59375 2.171875 -2.90625q1.28125 -1.3125 2.9375 -2.078125q1.65625 -0.765625 3.625 -0.765625zm4.211914 0.53125l5.015625 0l6.1875 16.265625q0.53125 1.4375 0.984375 2.765625q0.453125 1.328125 0.828125 2.59375q0.375 1.25 0.59375 2.421875l0.203125 0q0.328125 -1.328125 1.015625 -3.484375q0.703125 -2.171875 1.4375 -4.359375l5.8125 -16.203125l5.078125 0l-12.328125 32.53125q-1.015625 2.65625 -2.375 4.65625q-1.359375 2.0 -3.3125 3.09375q-1.9375 1.09375 -4.703125 1.09375q-1.28125 0 -2.25 -0.140625q-0.953125 -0.125 -1.640625 -0.28125l0 -3.734375q0.578125 0.109375 1.40625 0.203125q0.828125 0.109375 1.734375 0.109375q1.65625 0 2.84375 -0.609375q1.203125 -0.609375 2.0625 -1.765625q0.859375 -1.140625 1.4375 -2.6875l1.5 -3.78125l-11.53125 -28.6875z" fill-rule="nonzero"/><path fill="#7a621d" d="m442.22583 232.19669l-4.796875 0l0 -38.078125l21.28125 0l0 4.21875l-16.484375 0l0 13.484375l15.46875 0l0 4.21875l-15.46875 0l0 16.15625zm33.06787 -29.0625q5.21875 0 7.71875 2.296875q2.515625 2.28125 2.515625 7.296875l0 19.46875l-3.40625 0l-0.90625 -4.046875l-0.21875 0q-1.21875 1.546875 -2.53125 2.59375q-1.3125 1.03125 -3.0 1.5q-1.671875 0.484375 -4.0625 0.484375q-2.5625 0 -4.625 -0.90625q-2.046875 -0.90625 -3.21875 -2.796875q-1.171875 -1.890625 -1.171875 -4.78125q0 -4.265625 3.359375 -6.578125q3.359375 -2.328125 10.34375 -2.53125l4.859375 -0.15625l0 -1.71875q0 -3.5625 -1.546875 -4.953125q-1.546875 -1.390625 -4.375 -1.390625q-2.234375 0 -4.265625 0.671875q-2.03125 0.671875 -3.78125 1.515625l-1.453125 -3.515625q1.875 -1.015625 4.421875 -1.734375q2.5625 -0.71875 5.34375 -0.71875zm1.390625 15.25q-5.34375 0.21875 -7.390625 1.71875q-2.046875 1.484375 -2.046875 4.203125q0 2.390625 1.453125 3.515625q1.46875 1.125 3.765625 1.125q3.625 0 6.015625 -2.0q2.40625 -2.0 2.40625 -6.15625l0 -2.5625l-4.203125 0.15625zm31.026398 -15.296875q0.8125 0 1.734375 0.078125q0.9375 0.078125 1.625 0.234375l-0.578125 4.3125q-0.703125 -0.15625 -1.53125 -0.25q-0.8125 -0.109375 -1.5625 -0.109375q-1.65625 0 -3.15625 0.6875q-1.484375 0.6875 -2.65625 1.953125q-1.171875 1.25 -1.84375 3.015625q-0.671875 1.75 -0.671875 3.9375l0 15.25l-4.6875 0l0 -28.578125l3.84375 0l0.53125 5.21875l0.21875 0q0.90625 -1.59375 2.171875 -2.90625q1.28125 -1.3125 2.9375 -2.078125q1.65625 -0.765625 3.625 -0.765625zm40.055695 0q4.859375 0 7.25 2.484375q2.40625 2.46875 2.40625 8.015625l0 18.609375l-4.640625 0l0 -18.390625q0 -3.375 -1.421875 -5.078125q-1.40625 -1.703125 -4.390625 -1.703125q-4.15625 0 -5.953125 2.40625q-1.78125 2.390625 -1.78125 6.984375l0 15.78125l-4.640625 0l0 -18.390625q0 -2.25 -0.640625 -3.765625q-0.640625 -1.515625 -1.921875 -2.265625q-1.28125 -0.75 -3.296875 -0.75q-2.890625 0 -4.546875 1.203125q-1.640625 1.203125 -2.375 3.5q-0.71875 2.28125 -0.71875 5.640625l0 14.828125l-4.6875 0l0 -28.578125l3.78125 0l0.703125 3.890625l0.265625 0q0.90625 -1.5 2.203125 -2.484375q1.3125 -0.984375 2.90625 -1.453125q1.609375 -0.484375 3.3125 -0.484375q3.3125 0 5.515625 1.171875q2.21875 1.171875 3.234375 3.625l0.265625 0q1.4375 -2.453125 3.90625 -3.625q2.484375 -1.171875 5.265625 -1.171875zm23.18988 0.53125l0 28.578125l-4.6875 0l0 -28.578125l4.6875 0zm-2.28125 -10.71875q1.0625 0 1.890625 0.71875q0.828125 0.71875 0.828125 2.265625q0 1.484375 -0.828125 2.234375q-0.828125 0.75 -1.890625 0.75q-1.171875 0 -1.984375 -0.75q-0.796875 -0.75 -0.796875 -2.234375q0 -1.546875 0.796875 -2.265625q0.8125 -0.71875 1.984375 -0.71875zm25.117981 10.1875q5.109375 0 7.71875 2.484375q2.625 2.46875 2.625 8.015625l0 18.609375l-4.640625 0l0 -18.296875q0 -3.46875 -1.546875 -5.171875q-1.546875 -1.703125 -4.859375 -1.703125q-4.734375 0 -6.5625 2.671875q-1.8125 2.65625 -1.8125 7.671875l0 14.828125l-4.6875 0l0 -28.578125l3.78125 0l0.703125 3.890625l0.265625 0q0.953125 -1.5 2.359375 -2.484375q1.421875 -0.984375 3.125 -1.453125q1.71875 -0.484375 3.53125 -0.484375zm29.331726 0q2.8125 0 5.078125 1.0625q2.28125 1.0625 3.875 3.25l0.265625 0l0.640625 -3.78125l3.734375 0l0 29.0625q0 4.046875 -1.390625 6.796875q-1.390625 2.75 -4.21875 4.125q-2.8125 1.390625 -7.1875 1.390625q-3.09375 0 -5.6875 -0.453125q-2.578125 -0.453125 -4.609375 -1.359375l0 -4.3125q2.03125 1.0625 4.75 1.640625q2.71875 0.59375 5.8125 0.59375q3.671875 0 5.78125 -2.15625q2.109375 -2.15625 2.109375 -5.890625l0 -1.125q0 -0.640625 0.046875 -1.84375q0.0625 -1.203125 0.109375 -1.671875l-0.203125 0q-1.5 2.1875 -3.71875 3.25q-2.203125 1.0625 -5.140625 1.0625q-5.546875 0 -8.671875 -3.890625q-3.109375 -3.890625 -3.109375 -10.875q0 -6.828125 3.109375 -10.84375q3.125 -4.03125 8.625 -4.03125zm0.640625 3.9375q-2.40625 0 -4.09375 1.28125q-1.671875 1.28125 -2.5625 3.734375q-0.875 2.453125 -0.875 5.96875q0 5.28125 1.9375 8.078125q1.953125 2.796875 5.6875 2.796875q2.1875 0 3.734375 -0.546875q1.546875 -0.5625 2.5625 -1.765625q1.015625 -1.203125 1.484375 -3.0625q0.484375 -1.875 0.484375 -4.4375l0 -1.109375q0 -3.890625 -0.875 -6.296875q-0.875 -2.40625 -2.75 -3.515625q-1.859375 -1.125 -4.734375 -1.125z" fill-rule="nonzero"/><path fill="#000000" fill-opacity="0.0" d="m385.25708 376.39087l830.7401 0l0 226.2362l-830.7401 0z" fill-rule="evenodd"/><path fill="#7a621d" d="m466.55396 474.59088l-4.8125 0l0 -17.765625l-19.515625 0l0 17.765625l-4.796875 0l0 -38.078125l4.796875 0l0 16.109375l19.515625 0l0 -16.109375l4.8125 0l0 38.078125zm14.437958 -28.578125l0 28.578125l-4.6875 0l0 -28.578125l4.6875 0zm-2.28125 -10.71875q1.0625 0 1.890625 0.71875q0.828125 0.71875 0.828125 2.265625q0 1.484375 -0.828125 2.234375q-0.828125 0.75 -1.890625 0.75q-1.171875 0 -1.984375 -0.75q-0.796875 -0.75 -0.796875 -2.234375q0 -1.546875 0.796875 -2.265625q0.8125 -0.71875 1.984375 -0.71875zm21.493011 10.1875q2.8125 0 5.078125 1.0625q2.28125 1.0625 3.875 3.25l0.265625 0l0.640625 -3.78125l3.734375 0l0 29.0625q0 4.046875 -1.390625 6.796875q-1.390625 2.75 -4.21875 4.125q-2.8125 1.390625 -7.1875 1.390625q-3.09375 0 -5.6875 -0.453125q-2.578125 -0.453125 -4.609375 -1.359375l0 -4.3125q2.03125 1.0625 4.75 1.640625q2.71875 0.59375 5.8125 0.59375q3.671875 0 5.78125 -2.15625q2.109375 -2.15625 2.109375 -5.890625l0 -1.125q0 -0.640625 0.046875 -1.84375q0.0625 -1.203125 0.109375 -1.671875l-0.203125 0q-1.5 2.1875 -3.71875 3.25q-2.203125 1.0625 -5.140625 1.0625q-5.546875 0 -8.671875 -3.890625q-3.109375 -3.890625 -3.109375 -10.875q0 -6.828125 3.109375 -10.84375q3.125 -4.03125 8.625 -4.03125zm0.640625 3.9375q-2.40625 0 -4.09375 1.28125q-1.671875 1.28125 -2.5625 3.734375q-0.875 2.453125 -0.875 5.96875q0 5.28125 1.9375 8.078125q1.953125 2.796875 5.6875 2.796875q2.1875 0 3.734375 -0.546875q1.546875 -0.5625 2.5625 -1.765625q1.015625 -1.203125 1.484375 -3.0625q0.484375 -1.875 0.484375 -4.4375l0 -1.109375q0 -3.890625 -0.875 -6.296875q-0.875 -2.40625 -2.75 -3.515625q-1.859375 -1.125 -4.734375 -1.125zm26.703003 -3.46875q0 1.015625 -0.078125 2.09375q-0.078125 1.0625 -0.1875 1.90625l0.328125 0q0.90625 -1.484375 2.28125 -2.4375q1.390625 -0.96875 3.09375 -1.46875q1.71875 -0.515625 3.53125 -0.515625q3.46875 0 5.78125 1.09375q2.328125 1.09375 3.5 3.390625q1.171875 2.28125 1.171875 5.96875l0 18.609375l-4.640625 0l0 -18.296875q0 -3.46875 -1.546875 -5.171875q-1.546875 -1.703125 -4.859375 -1.703125q-3.1875 0 -5.015625 1.203125q-1.8125 1.203125 -2.59375 3.53125q-0.765625 2.3125 -0.765625 5.671875l0 14.765625l-4.6875 0l0 -40.53125l4.6875 0l0 11.890625zm25.878601 16.421875l0 -4.15625l12.890625 0l0 4.15625l-12.890625 0zm32.89038 -16.890625q0.8125 0 1.734375 0.078125q0.9375 0.078125 1.625 0.234375l-0.578125 4.3125q-0.703125 -0.15625 -1.53125 -0.25q-0.8125 -0.109375 -1.5625 -0.109375q-1.65625 0 -3.15625 0.6875q-1.484375 0.6875 -2.65625 1.953125q-1.171875 1.25 -1.84375 3.015625q-0.671875 1.75 -0.671875 3.9375l0 15.25l-4.6875 0l0 -28.578125l3.84375 0l0.53125 5.21875l0.21875 0q0.90625 -1.59375 2.171875 -2.90625q1.28125 -1.3125 2.9375 -2.078125q1.65625 -0.765625 3.625 -0.765625zm19.524475 0.046875q5.21875 0 7.71875 2.296875q2.515625 2.28125 2.515625 7.296875l0 19.46875l-3.40625 0l-0.90625 -4.046875l-0.21875 0q-1.21875 1.546875 -2.53125 2.59375q-1.3125 1.03125 -3.0 1.5q-1.671875 0.484375 -4.0625 0.484375q-2.5625 0 -4.625 -0.90625q-2.046875 -0.90625 -3.21875 -2.796875q-1.171875 -1.890625 -1.171875 -4.78125q0 -4.265625 3.359375 -6.578125q3.359375 -2.328125 10.34375 -2.53125l4.859375 -0.15625l0 -1.71875q0 -3.5625 -1.546875 -4.953125q-1.546875 -1.390625 -4.375 -1.390625q-2.234375 0 -4.265625 0.671875q-2.03125 0.671875 -3.78125 1.515625l-1.453125 -3.515625q1.875 -1.015625 4.421875 -1.734375q2.5625 -0.71875 5.34375 -0.71875zm1.390625 15.25q-5.34375 0.21875 -7.390625 1.71875q-2.046875 1.484375 -2.046875 4.203125q0 2.390625 1.453125 3.515625q1.46875 1.125 3.765625 1.125q3.625 0 6.015625 -2.0q2.40625 -2.0 2.40625 -6.15625l0 -2.5625l-4.203125 0.15625zm31.463867 -15.296875q5.109375 0 7.71875 2.484375q2.625 2.46875 2.625 8.015625l0 18.609375l-4.640625 0l0 -18.296875q0 -3.46875 -1.546875 -5.171875q-1.546875 -1.703125 -4.859375 -1.703125q-4.734375 0 -6.5625 2.671875q-1.8125 2.65625 -1.8125 7.671875l0 14.828125l-4.6875 0l0 -28.578125l3.78125 0l0.703125 3.890625l0.265625 0q0.953125 -1.5 2.359375 -2.484375q1.421875 -0.984375 3.125 -1.453125q1.71875 -0.484375 3.53125 -0.484375zm23.831726 9.75q0 0.859375 -0.078125 2.25q-0.078125 1.375 -0.140625 2.390625l0.21875 0q0.328125 -0.421875 0.953125 -1.21875q0.640625 -0.8125 1.3125 -1.625q0.671875 -0.828125 1.140625 -1.375l9.125 -9.640625l5.5 0l-11.578125 12.203125l12.375 16.375l-5.65625 0l-9.921875 -13.328125l-3.25 2.828125l0 10.5l-4.640625 0l0 -40.53125l4.640625 0l0 21.171875zm34.883423 -9.75q3.671875 0 6.3125 1.59375q2.640625 1.59375 4.046875 4.5q1.421875 2.90625 1.421875 6.796875l0 2.828125l-19.578125 0q0.109375 4.859375 2.484375 7.390625q2.375 2.53125 6.640625 2.53125q2.71875 0 4.828125 -0.5q2.109375 -0.515625 4.34375 -1.46875l0 4.109375q-2.1875 0.953125 -4.328125 1.40625q-2.125 0.453125 -5.0625 0.453125q-4.046875 0 -7.171875 -1.640625q-3.109375 -1.65625 -4.84375 -4.9375q-1.734375 -3.28125 -1.734375 -8.03125q0 -4.6875 1.5625 -8.046875q1.578125 -3.359375 4.421875 -5.171875q2.859375 -1.8125 6.65625 -1.8125zm-0.0625 3.828125q-3.359375 0 -5.3125 2.171875q-1.9375 2.15625 -2.3125 5.984375l14.5625 0q0 -2.453125 -0.75 -4.265625q-0.75 -1.8125 -2.265625 -2.84375q-1.515625 -1.046875 -3.921875 -1.046875zm29.233276 25.8125q-5.34375 0 -8.546875 -3.703125q-3.1875 -3.703125 -3.1875 -11.0625q0 -7.359375 3.21875 -11.109375q3.234375 -3.765625 8.5625 -3.765625q2.234375 0 3.890625 0.5625q1.65625 0.546875 2.875 1.515625q1.234375 0.953125 2.09375 2.125l0.3125 0q-0.046875 -0.6875 -0.1875 -2.046875q-0.125 -1.359375 -0.125 -2.15625l0 -11.421875l4.6875 0l0 40.53125l-3.78125 0l-0.703125 -3.84375l-0.203125 0q-0.859375 1.234375 -2.09375 2.21875q-1.21875 0.984375 -2.90625 1.578125q-1.671875 0.578125 -3.90625 0.578125zm0.734375 -3.890625q4.53125 0 6.375 -2.46875q1.84375 -2.484375 1.84375 -7.5l0 -0.859375q0 -5.328125 -1.765625 -8.171875q-1.75 -2.859375 -6.5 -2.859375q-3.78125 0 -5.6875 3.015625q-1.890625 3.0 -1.890625 8.078125q0 5.109375 1.890625 7.9375q1.90625 2.828125 5.734375 2.828125zm52.740173 -31.03125q-3.03125 0 -5.484375 1.046875q-2.453125 1.03125 -4.171875 3.03125q-1.703125 2.0 -2.609375 4.859375q-0.90625 2.84375 -0.90625 6.421875q0 4.6875 1.46875 8.15625q1.46875 3.46875 4.375 5.34375q2.90625 1.859375 7.28125 1.859375q2.5 0 4.734375 -0.421875q2.25 -0.4375 4.390625 -1.078125l0 4.15625q-2.140625 0.796875 -4.40625 1.171875q-2.265625 0.375 -5.40625 0.375q-5.8125 0 -9.71875 -2.390625q-3.890625 -2.40625 -5.84375 -6.828125q-1.9375 -4.4375 -1.9375 -10.40625q0 -4.3125 1.203125 -7.890625q1.203125 -3.578125 3.515625 -6.1875q2.328125 -2.609375 5.734375 -4.015625q3.421875 -1.421875 7.84375 -1.421875q2.9375 0 5.65625 0.59375q2.71875 0.578125 4.84375 1.640625l-1.921875 4.0625q-1.75 -0.796875 -3.921875 -1.4375q-2.15625 -0.640625 -4.71875 -0.640625zm41.60956 20.046875q0 3.578125 -0.9375 6.328125q-0.9375 2.734375 -2.671875 4.65625q-1.734375 1.921875 -4.21875 2.90625q-2.46875 0.984375 -5.515625 0.984375q-2.828125 0 -5.234375 -0.984375q-2.390625 -0.984375 -4.15625 -2.90625q-1.75 -1.921875 -2.734375 -4.65625q-0.984375 -2.75 -0.984375 -6.328125q0 -4.75 1.59375 -8.03125q1.59375 -3.28125 4.578125 -5.0q3.0 -1.734375 7.109375 -1.734375q3.890625 0 6.84375 1.734375q2.96875 1.71875 4.640625 5.0q1.6875 3.28125 1.6875 8.03125zm-21.609375 0q0 3.359375 0.875 5.84375q0.890625 2.46875 2.75 3.8125q1.875 1.328125 4.75 1.328125q2.875 0 4.734375 -1.328125q1.875 -1.34375 2.75 -3.8125q0.890625 -2.484375 0.890625 -5.84375q0 -3.421875 -0.90625 -5.8125q-0.90625 -2.40625 -2.75 -3.703125q-1.84375 -1.3125 -4.765625 -1.3125q-4.375 0 -6.359375 2.890625q-1.96875 2.875 -1.96875 7.9375zm42.779053 -14.765625q5.109375 0 7.71875 2.484375q2.625 2.46875 2.625 8.015625l0 18.609375l-4.640625 0l0 -18.296875q0 -3.46875 -1.546875 -5.171875q-1.546875 -1.703125 -4.859375 -1.703125q-4.734375 0 -6.5625 2.671875q-1.8125 2.65625 -1.8125 7.671875l0 14.828125l-4.6875 0l0 -28.578125l3.78125 0l0.703125 3.890625l0.265625 0q0.953125 -1.5 2.359375 -2.484375q1.421875 -0.984375 3.125 -1.453125q1.71875 -0.484375 3.53125 -0.484375zm29.331726 29.640625q-5.34375 0 -8.546875 -3.703125q-3.1875 -3.703125 -3.1875 -11.0625q0 -7.359375 3.21875 -11.109375q3.234375 -3.765625 8.5625 -3.765625q2.234375 0 3.890625 0.5625q1.65625 0.546875 2.875 1.515625q1.234375 0.953125 2.09375 2.125l0.3125 0q-0.046875 -0.6875 -0.1875 -2.046875q-0.125 -1.359375 -0.125 -2.15625l0 -11.421875l4.6875 0l0 40.53125l-3.78125 0l-0.703125 -3.84375l-0.203125 0q-0.859375 1.234375 -2.09375 2.21875q-1.21875 0.984375 -2.90625 1.578125q-1.671875 0.578125 -3.90625 0.578125zm0.734375 -3.890625q4.53125 0 6.375 -2.46875q1.84375 -2.484375 1.84375 -7.5l0 -0.859375q0 -5.328125 -1.765625 -8.171875q-1.75 -2.859375 -6.5 -2.859375q-3.78125 0 -5.6875 3.015625q-1.890625 3.0 -1.890625 8.078125q0 5.109375 1.890625 7.9375q1.90625 2.828125 5.734375 2.828125zm26.609253 -25.21875l0 28.578125l-4.6875 0l0 -28.578125l4.6875 0zm-2.28125 -10.71875q1.0625 0 1.890625 0.71875q0.828125 0.71875 0.828125 2.265625q0 1.484375 -0.828125 2.234375q-0.828125 0.75 -1.890625 0.75q-1.171875 0 -1.984375 -0.75q-0.796875 -0.75 -0.796875 -2.234375q0 -1.546875 0.796875 -2.265625q0.8125 -0.71875 1.984375 -0.71875zm20.899231 35.984375q1.0625 0 2.1875 -0.171875q1.125 -0.1875 1.8125 -0.40625l0 3.578125q-0.75 0.359375 -2.140625 0.59375q-1.375 0.25 -2.65625 0.25q-2.25 0 -4.140625 -0.765625q-1.890625 -0.78125 -3.0625 -2.703125q-1.171875 -1.921875 -1.171875 -5.375l0 -16.640625l-4.046875 0l0 -2.25l4.09375 -1.859375l1.875 -6.078125l2.765625 0l0 6.5625l8.265625 0l0 3.625l-8.265625 0l0 16.53125q0 2.609375 1.25 3.859375q1.265625 1.25 3.234375 1.25zm14.39209 -25.265625l0 28.578125l-4.6875 0l0 -28.578125l4.6875 0zm-2.28125 -10.71875q1.0625 0 1.890625 0.71875q0.828125 0.71875 0.828125 2.265625q0 1.484375 -0.828125 2.234375q-0.828125 0.75 -1.890625 0.75q-1.171875 0 -1.984375 -0.75q-0.796875 -0.75 -0.796875 -2.234375q0 -1.546875 0.796875 -2.265625q0.8125 -0.71875 1.984375 -0.71875zm36.211792 24.953125q0 3.578125 -0.9375 6.328125q-0.9375 2.734375 -2.671875 4.65625q-1.734375 1.921875 -4.21875 2.90625q-2.46875 0.984375 -5.515625 0.984375q-2.828125 0 -5.234375 -0.984375q-2.390625 -0.984375 -4.15625 -2.90625q-1.75 -1.921875 -2.734375 -4.65625q-0.984375 -2.75 -0.984375 -6.328125q0 -4.75 1.59375 -8.03125q1.59375 -3.28125 4.578125 -5.0q3.0 -1.734375 7.109375 -1.734375q3.890625 0 6.84375 1.734375q2.96875 1.71875 4.640625 5.0q1.6875 3.28125 1.6875 8.03125zm-21.609375 0q0 3.359375 0.875 5.84375q0.890625 2.46875 2.75 3.8125q1.875 1.328125 4.75 1.328125q2.875 0 4.734375 -1.328125q1.875 -1.34375 2.75 -3.8125q0.890625 -2.484375 0.890625 -5.84375q0 -3.421875 -0.90625 -5.8125q-0.90625 -2.40625 -2.75 -3.703125q-1.84375 -1.3125 -4.765625 -1.3125q-4.375 0 -6.359375 2.890625q-1.96875 2.875 -1.96875 7.9375zm42.779053 -14.765625q5.109375 0 7.71875 2.484375q2.625 2.46875 2.625 8.015625l0 18.609375l-4.640625 0l0 -18.296875q0 -3.46875 -1.546875 -5.171875q-1.546875 -1.703125 -4.859375 -1.703125q-4.734375 0 -6.5625 2.671875q-1.8125 2.65625 -1.8125 7.671875l0 14.828125l-4.6875 0l0 -28.578125l3.78125 0l0.703125 3.890625l0.265625 0q0.953125 -1.5 2.359375 -2.484375q1.421875 -0.984375 3.125 -1.453125q1.71875 -0.484375 3.53125 -0.484375zm46.22827 4.15625l-7.203125 0l0 24.953125l-4.6875 0l0 -24.953125l-5.015625 0l0 -2.1875l5.015625 -1.609375l0 -1.640625q0 -3.6875 1.09375 -5.96875q1.09375 -2.296875 3.171875 -3.359375q2.078125 -1.078125 5.015625 -1.078125q1.703125 0 3.109375 0.296875q1.421875 0.296875 2.4375 0.65625l-1.234375 3.6875q-0.84375 -0.265625 -1.96875 -0.53125q-1.125 -0.265625 -2.296875 -0.265625q-2.34375 0 -3.5 1.578125q-1.140625 1.5625 -1.140625 4.921875l0 1.875l7.203125 0l0 3.625zm30.032349 10.609375q0 3.578125 -0.9375 6.328125q-0.9375 2.734375 -2.671875 4.65625q-1.734375 1.921875 -4.21875 2.90625q-2.46875 0.984375 -5.515625 0.984375q-2.828125 0 -5.234375 -0.984375q-2.390625 -0.984375 -4.15625 -2.90625q-1.75 -1.921875 -2.734375 -4.65625q-0.984375 -2.75 -0.984375 -6.328125q0 -4.75 1.59375 -8.03125q1.59375 -3.28125 4.578125 -5.0q3.0 -1.734375 7.109375 -1.734375q3.890625 0 6.84375 1.734375q2.96875 1.71875 4.640625 5.0q1.6875 3.28125 1.6875 8.03125zm-21.609375 0q0 3.359375 0.875 5.84375q0.890625 2.46875 2.75 3.8125q1.875 1.328125 4.75 1.328125q2.875 0 4.734375 -1.328125q1.875 -1.34375 2.75 -3.8125q0.890625 -2.484375 0.890625 -5.84375q0 -3.421875 -0.90625 -5.8125q-0.90625 -2.40625 -2.75 -3.703125q-1.84375 -1.3125 -4.765625 -1.3125q-4.375 0 -6.359375 2.890625q-1.96875 2.875 -1.96875 7.9375zm42.341553 -14.765625q0.8125 0 1.734375 0.078125q0.9375 0.078125 1.625 0.234375l-0.578125 4.3125q-0.703125 -0.15625 -1.53125 -0.25q-0.8125 -0.109375 -1.5625 -0.109375q-1.65625 0 -3.15625 0.6875q-1.484375 0.6875 -2.65625 1.953125q-1.171875 1.25 -1.84375 3.015625q-0.671875 1.75 -0.671875 3.9375l0 15.25l-4.6875 0l0 -28.578125l3.84375 0l0.53125 5.21875l0.21875 0q0.90625 -1.59375 2.171875 -2.90625q1.28125 -1.3125 2.9375 -2.078125q1.65625 -0.765625 3.625 -0.765625z" fill-rule="nonzero"/><path fill="#7a621d" d="m467.92896 519.18463q0 6.390625 -2.375 10.71875q-2.359375 4.3125 -6.796875 6.5q-4.421875 2.1875 -10.71875 2.1875l-10.609375 0l0 -38.078125l11.734375 0q5.765625 0 9.96875 2.140625q4.21875 2.125 6.5 6.265625q2.296875 4.125 2.296875 10.265625zm-5.0625 0.15625q0 -5.0625 -1.6875 -8.3125q-1.671875 -3.265625 -4.90625 -4.828125q-3.21875 -1.578125 -7.796875 -1.578125l-6.25 0l0 29.859375l5.171875 0q7.734375 0 11.59375 -3.8125q3.875 -3.8125 3.875 -11.328125zm26.179474 -9.859375q0.8125 0 1.734375 0.078125q0.9375 0.078125 1.625 0.234375l-0.578125 4.3125q-0.703125 -0.15625 -1.53125 -0.25q-0.8125 -0.109375 -1.5625 -0.109375q-1.65625 0 -3.15625 0.6875q-1.484375 0.6875 -2.65625 1.953125q-1.171875 1.25 -1.84375 3.015625q-0.671875 1.75 -0.671875 3.9375l0 15.25l-4.6875 0l0 -28.578125l3.84375 0l0.53125 5.21875l0.21875 0q0.90625 -1.59375 2.171875 -2.90625q1.28125 -1.3125 2.9375 -2.078125q1.65625 -0.765625 3.625 -0.765625zm4.211975 0.53125l5.015625 0l6.1875 16.265625q0.53125 1.4375 0.984375 2.765625q0.453125 1.328125 0.828125 2.59375q0.375 1.25 0.59375 2.421875l0.203125 0q0.328125 -1.328125 1.015625 -3.484375q0.703125 -2.171875 1.4375 -4.359375l5.8124695 -16.203125l5.078125 0l-12.3280945 32.53125q-1.015625 2.65625 -2.375 4.65625q-1.359375 2.0 -3.3125 3.09375q-1.9375 1.09375 -4.703125 1.09375q-1.28125 0 -2.25 -0.140625q-0.953125 -0.125 -1.640625 -0.28125l0 -3.734375q0.578125 0.109375 1.40625 0.203125q0.828125 0.109375 1.734375 0.109375q1.65625 0 2.84375 -0.609375q1.203125 -0.609375 2.0625 -1.765625q0.859375 -1.140625 1.4375 -2.6875l1.5 -3.78125l-11.53125 -28.6875zm50.984467 28.578125l-4.796875 0l0 -38.078125l21.28125 0l0 4.21875l-16.484375 0l0 13.484375l15.46875 0l0 4.21875l-15.46875 0l0 16.15625zm33.06787 -29.0625q5.21875 0 7.71875 2.296875q2.515625 2.28125 2.515625 7.296875l0 19.46875l-3.40625 0l-0.90625 -4.046875l-0.21875 0q-1.21875 1.546875 -2.53125 2.59375q-1.3125 1.03125 -3.0 1.5q-1.671875 0.484375 -4.0625 0.484375q-2.5625 0 -4.625 -0.90625q-2.046875 -0.90625 -3.21875 -2.796875q-1.171875 -1.890625 -1.171875 -4.78125q0 -4.265625 3.359375 -6.578125q3.359375 -2.328125 10.34375 -2.53125l4.859375 -0.15625l0 -1.71875q0 -3.5625 -1.546875 -4.953125q-1.546875 -1.390625 -4.375 -1.390625q-2.234375 0 -4.265625 0.671875q-2.03125 0.671875 -3.78125 1.515625l-1.453125 -3.515625q1.875 -1.015625 4.421875 -1.734375q2.5625 -0.71875 5.34375 -0.71875zm1.390625 15.25q-5.34375 0.21875 -7.390625 1.71875q-2.046875 1.484375 -2.046875 4.203125q0 2.390625 1.453125 3.515625q1.46875 1.125 3.765625 1.125q3.625 0 6.015625 -2.0q2.40625 -2.0 2.40625 -6.15625l0 -2.5625l-4.203125 0.15625zm31.026367 -15.296875q0.8125 0 1.734375 0.078125q0.9375 0.078125 1.625 0.234375l-0.578125 4.3125q-0.703125 -0.15625 -1.53125 -0.25q-0.8125 -0.109375 -1.5625 -0.109375q-1.65625 0 -3.15625 0.6875q-1.484375 0.6875 -2.65625 1.953125q-1.171875 1.25 -1.84375 3.015625q-0.671875 1.75 -0.671875 3.9375l0 15.25l-4.6875 0l0 -28.578125l3.84375 0l0.53125 5.21875l0.21875 0q0.90625 -1.59375 2.171875 -2.90625q1.28125 -1.3125 2.9375 -2.078125q1.65625 -0.765625 3.625 -0.765625zm40.055725 0q4.859375 0 7.25 2.484375q2.40625 2.46875 2.40625 8.015625l0 18.609375l-4.640625 0l0 -18.390625q0 -3.375 -1.421875 -5.078125q-1.40625 -1.703125 -4.390625 -1.703125q-4.15625 0 -5.953125 2.40625q-1.78125 2.390625 -1.78125 6.984375l0 15.78125l-4.640625 0l0 -18.390625q0 -2.25 -0.640625 -3.765625q-0.640625 -1.515625 -1.921875 -2.265625q-1.28125 -0.75 -3.296875 -0.75q-2.890625 0 -4.546875 1.203125q-1.640625 1.203125 -2.375 3.5q-0.71875 2.28125 -0.71875 5.640625l0 14.828125l-4.6875 0l0 -28.578125l3.78125 0l0.703125 3.890625l0.265625 0q0.90625 -1.5 2.203125 -2.484375q1.3125 -0.984375 2.90625 -1.453125q1.609375 -0.484375 3.3125 -0.484375q3.3125 0 5.515625 1.171875q2.21875 1.171875 3.234375 3.625l0.265625 0q1.4375 -2.453125 3.90625 -3.625q2.484375 -1.171875 5.265625 -1.171875zm23.18988 0.53125l0 28.578125l-4.6875 0l0 -28.578125l4.6875 0zm-2.28125 -10.71875q1.0625 0 1.890625 0.71875q0.828125 0.71875 0.828125 2.265625q0 1.484375 -0.828125 2.234375q-0.828125 0.75 -1.890625 0.75q-1.171875 0 -1.984375 -0.75q-0.796875 -0.75 -0.796875 -2.234375q0 -1.546875 0.796875 -2.265625q0.8125 -0.71875 1.984375 -0.71875zm25.117981 10.1875q5.109375 0 7.71875 2.484375q2.625 2.46875 2.625 8.015625l0 18.609375l-4.640625 0l0 -18.296875q0 -3.46875 -1.546875 -5.171875q-1.546875 -1.703125 -4.859375 -1.703125q-4.734375 0 -6.5625 2.671875q-1.8125 2.65625 -1.8125 7.671875l0 14.828125l-4.6875 0l0 -28.578125l3.78125 0l0.703125 3.890625l0.265625 0q0.953125 -1.5 2.359375 -2.484375q1.421875 -0.984375 3.125 -1.453125q1.71875 -0.484375 3.53125 -0.484375zm29.331726 0q2.8125 0 5.078125 1.0625q2.28125 1.0625 3.875 3.25l0.265625 0l0.640625 -3.78125l3.734375 0l0 29.0625q0 4.046875 -1.390625 6.796875q-1.390625 2.75 -4.21875 4.125q-2.8125 1.390625 -7.1875 1.390625q-3.09375 0 -5.6875 -0.453125q-2.578125 -0.453125 -4.609375 -1.359375l0 -4.3125q2.03125 1.0625 4.75 1.640625q2.71875 0.59375 5.8125 0.59375q3.671875 0 5.78125 -2.15625q2.109375 -2.15625 2.109375 -5.890625l0 -1.125q0 -0.640625 0.046875 -1.84375q0.0625 -1.203125 0.109375 -1.671875l-0.203125 0q-1.5 2.1875 -3.71875 3.25q-2.203125 1.0625 -5.140625 1.0625q-5.546875 0 -8.671875 -3.890625q-3.109375 -3.890625 -3.109375 -10.875q0 -6.828125 3.109375 -10.84375q3.125 -4.03125 8.625 -4.03125zm0.640625 3.9375q-2.40625 0 -4.09375 1.28125q-1.671875 1.28125 -2.5625 3.734375q-0.875 2.453125 -0.875 5.96875q0 5.28125 1.9375 8.078125q1.953125 2.796875 5.6875 2.796875q2.1875 0 3.734375 -0.546875q1.546875 -0.5625 2.5625 -1.765625q1.015625 -1.203125 1.484375 -3.0625q0.484375 -1.875 0.484375 -4.4375l0 -1.109375q0 -3.890625 -0.875 -6.296875q-0.875 -2.40625 -2.75 -3.515625q-1.859375 -1.125 -4.734375 -1.125z" fill-rule="nonzero"/><path fill="#000000" fill-opacity="0.0" d="m385.25708 691.5662l830.7401 0l0 226.2362l-830.7401 0z" fill-rule="evenodd"/><path fill="#7a621d" d="m454.22583 789.7662l-12.53125 -33.390625l-0.21875 0q0.109375 1.078125 0.1875 2.734375q0.09375 1.640625 0.140625 3.59375q0.046875 1.9375 0.046875 3.96875l0 23.09375l-4.421875 0l0 -38.078125l7.09375 0l11.734375 31.203125l0.203125 0l11.953125 -31.203125l7.046875 0l0 38.078125l-4.75 0l0 -23.40625q0 -1.875 0.046875 -3.703125q0.0625 -1.84375 0.15625 -3.46875q0.109375 -1.625 0.171875 -2.75l-0.21875 0l-12.6875 33.328125l-3.953125 0zm35.61853 -28.578125l0 28.578125l-4.6875 0l0 -28.578125l4.6875 0zm-2.28125 -10.71875q1.0625 0 1.890625 0.71875q0.828125 0.71875 0.828125 2.265625q0 1.484375 -0.828125 2.234375q-0.828125 0.75 -1.890625 0.75q-1.171875 0 -1.984375 -0.75q-0.796875 -0.75 -0.796875 -2.234375q0 -1.546875 0.796875 -2.265625q0.8125 -0.71875 1.984375 -0.71875zm21.493011 39.828125q-5.34375 0 -8.546875 -3.703125q-3.1875 -3.703125 -3.1875 -11.0625q0 -7.359375 3.21875 -11.109375q3.234375 -3.765625 8.5625 -3.765625q2.234375 0 3.8905945 0.5625q1.65625 0.546875 2.875 1.515625q1.234375 0.953125 2.09375 2.125l0.3125 0q-0.046875 -0.6875 -0.1875 -2.046875q-0.125 -1.359375 -0.125 -2.15625l0 -11.421875l4.6875 0l0 40.53125l-3.78125 0l-0.703125 -3.84375l-0.203125 0q-0.859375 1.234375 -2.09375 2.21875q-1.21875 0.984375 -2.90625 1.578125q-1.6718445 0.578125 -3.9062195 0.578125zm0.734375 -3.890625q4.5312195 0 6.3749695 -2.46875q1.84375 -2.484375 1.84375 -7.5l0 -0.859375q0 -5.328125 -1.765625 -8.171875q-1.75 -2.859375 -6.4999695 -2.859375q-3.78125 0 -5.6875 3.015625q-1.890625 3.0 -1.890625 8.078125q0 5.109375 1.890625 7.9375q1.90625 2.828125 5.734375 2.828125zm19.531097 -8.859375l0 -4.15625l12.890625 0l0 4.15625l-12.890625 0zm32.89038 -16.890625q0.8125 0 1.734375 0.078125q0.9375 0.078125 1.625 0.234375l-0.578125 4.3125q-0.703125 -0.15625 -1.53125 -0.25q-0.8125 -0.109375 -1.5625 -0.109375q-1.65625 0 -3.15625 0.6875q-1.484375 0.6875 -2.65625 1.953125q-1.171875 1.25 -1.84375 3.015625q-0.671875 1.75 -0.671875 3.9375l0 15.25l-4.6875 0l0 -28.578125l3.84375 0l0.53125 5.21875l0.21875 0q0.90625 -1.59375 2.171875 -2.90625q1.28125 -1.3125 2.9375 -2.078125q1.65625 -0.765625 3.625 -0.765625zm19.524475 0.046875q5.21875 0 7.71875 2.296875q2.515625 2.28125 2.515625 7.296875l0 19.46875l-3.40625 0l-0.90625 -4.046875l-0.21875 0q-1.21875 1.546875 -2.53125 2.59375q-1.3125 1.03125 -3.0 1.5q-1.671875 0.484375 -4.0625 0.484375q-2.5625 0 -4.625 -0.90625q-2.046875 -0.90625 -3.21875 -2.796875q-1.171875 -1.890625 -1.171875 -4.78125q0 -4.265625 3.359375 -6.578125q3.359375 -2.328125 10.34375 -2.53125l4.859375 -0.15625l0 -1.71875q0 -3.5625 -1.546875 -4.953125q-1.546875 -1.390625 -4.375 -1.390625q-2.234375 0 -4.265625 0.671875q-2.03125 0.671875 -3.78125 1.515625l-1.453125 -3.515625q1.875 -1.015625 4.421875 -1.734375q2.5625 -0.71875 5.34375 -0.71875zm1.390625 15.25q-5.34375 0.21875 -7.390625 1.71875q-2.046875 1.484375 -2.046875 4.203125q0 2.390625 1.453125 3.515625q1.46875 1.125 3.765625 1.125q3.625 0 6.015625 -2.0q2.40625 -2.0 2.40625 -6.15625l0 -2.5625l-4.203125 0.15625zm31.463928 -15.296875q5.109375 0 7.71875 2.484375q2.625 2.46875 2.625 8.015625l0 18.609375l-4.640625 0l0 -18.296875q0 -3.46875 -1.546875 -5.171875q-1.546875 -1.703125 -4.859375 -1.703125q-4.734375 0 -6.5625 2.671875q-1.8125 2.65625 -1.8125 7.671875l0 14.828125l-4.6875 0l0 -28.578125l3.78125 0l0.703125 3.890625l0.265625 0q0.953125 -1.5 2.359375 -2.484375q1.421875 -0.984375 3.125 -1.453125q1.71875 -0.484375 3.53125 -0.484375zm23.831726 9.75q0 0.859375 -0.078125 2.25q-0.078125 1.375 -0.140625 2.390625l0.21875 0q0.328125 -0.421875 0.953125 -1.21875q0.640625 -0.8125 1.3125 -1.625q0.671875 -0.828125 1.140625 -1.375l9.125 -9.640625l5.5 0l-11.578125 12.203125l12.375 16.375l-5.65625 0l-9.921875 -13.328125l-3.25 2.828125l0 10.5l-4.640625 0l0 -40.53125l4.640625 0l0 21.171875zm34.883423 -9.75q3.671875 0 6.3125 1.59375q2.640625 1.59375 4.046875 4.5q1.421875 2.90625 1.421875 6.796875l0 2.828125l-19.578125 0q0.109375 4.859375 2.484375 7.390625q2.375 2.53125 6.640625 2.53125q2.71875 0 4.828125 -0.5q2.109375 -0.515625 4.34375 -1.46875l0 4.109375q-2.1875 0.953125 -4.328125 1.40625q-2.125 0.453125 -5.0625 0.453125q-4.046875 0 -7.171875 -1.640625q-3.109375 -1.65625 -4.84375 -4.9375q-1.734375 -3.28125 -1.734375 -8.03125q0 -4.6875 1.5625 -8.046875q1.578125 -3.359375 4.421875 -5.171875q2.859375 -1.8125 6.65625 -1.8125zm-0.0625 3.828125q-3.359375 0 -5.3125 2.171875q-1.9375 2.15625 -2.3125 5.984375l14.5625 0q0 -2.453125 -0.75 -4.265625q-0.75 -1.8125 -2.265625 -2.84375q-1.515625 -1.046875 -3.921875 -1.046875zm29.233215 25.8125q-5.34375 0 -8.546875 -3.703125q-3.1875 -3.703125 -3.1875 -11.0625q0 -7.359375 3.21875 -11.109375q3.234375 -3.765625 8.5625 -3.765625q2.234375 0 3.890625 0.5625q1.65625 0.546875 2.875 1.515625q1.234375 0.953125 2.09375 2.125l0.3125 0q-0.046875 -0.6875 -0.1875 -2.046875q-0.125 -1.359375 -0.125 -2.15625l0 -11.421875l4.6875 0l0 40.53125l-3.78125 0l-0.703125 -3.84375l-0.203125 0q-0.859375 1.234375 -2.09375 2.21875q-1.21875 0.984375 -2.90625 1.578125q-1.671875 0.578125 -3.90625 0.578125zm0.734375 -3.890625q4.53125 0 6.375 -2.46875q1.84375 -2.484375 1.84375 -7.5l0 -0.859375q0 -5.328125 -1.765625 -8.171875q-1.75 -2.859375 -6.5 -2.859375q-3.78125 0 -5.6875 3.015625q-1.890625 3.0 -1.890625 8.078125q0 5.109375 1.890625 7.9375q1.90625 2.828125 5.734375 2.828125zm52.740173 -31.03125q-3.03125 0 -5.484375 1.046875q-2.453125 1.03125 -4.171875 3.03125q-1.703125 2.0 -2.609375 4.859375q-0.90625 2.84375 -0.90625 6.421875q0 4.6875 1.46875 8.15625q1.46875 3.46875 4.375 5.34375q2.90625 1.859375 7.28125 1.859375q2.5 0 4.734375 -0.421875q2.25 -0.4375 4.390625 -1.078125l0 4.15625q-2.140625 0.796875 -4.40625 1.171875q-2.265625 0.375 -5.40625 0.375q-5.8125 0 -9.71875 -2.390625q-3.890625 -2.40625 -5.84375 -6.828125q-1.9375 -4.4375 -1.9375 -10.40625q0 -4.3125 1.203125 -7.890625q1.203125 -3.578125 3.515625 -6.1875q2.328125 -2.609375 5.734375 -4.015625q3.421875 -1.421875 7.84375 -1.421875q2.9375 0 5.65625 0.59375q2.71875 0.578125 4.84375 1.640625l-1.921875 4.0625q-1.75 -0.796875 -3.921875 -1.4375q-2.15625 -0.640625 -4.71875 -0.640625zm41.60956 20.046875q0 3.578125 -0.9375 6.328125q-0.9375 2.734375 -2.671875 4.65625q-1.734375 1.921875 -4.21875 2.90625q-2.46875 0.984375 -5.515625 0.984375q-2.828125 0 -5.234375 -0.984375q-2.390625 -0.984375 -4.15625 -2.90625q-1.75 -1.921875 -2.734375 -4.65625q-0.984375 -2.75 -0.984375 -6.328125q0 -4.75 1.59375 -8.03125q1.59375 -3.28125 4.578125 -5.0q3.0 -1.734375 7.109375 -1.734375q3.890625 0 6.84375 1.734375q2.96875 1.71875 4.640625 5.0q1.6875 3.28125 1.6875 8.03125zm-21.609375 0q0 3.359375 0.875 5.84375q0.890625 2.46875 2.75 3.8125q1.875 1.328125 4.75 1.328125q2.875 0 4.734375 -1.328125q1.875 -1.34375 2.75 -3.8125q0.890625 -2.484375 0.890625 -5.84375q0 -3.421875 -0.90625 -5.8125q-0.90625 -2.40625 -2.75 -3.703125q-1.84375 -1.3125 -4.765625 -1.3125q-4.375 0 -6.359375 2.890625q-1.96875 2.875 -1.96875 7.9375zm42.779053 -14.765625q5.109375 0 7.71875 2.484375q2.625 2.46875 2.625 8.015625l0 18.609375l-4.640625 0l0 -18.296875q0 -3.46875 -1.546875 -5.171875q-1.546875 -1.703125 -4.859375 -1.703125q-4.734375 0 -6.5625 2.671875q-1.8125 2.65625 -1.8125 7.671875l0 14.828125l-4.6875 0l0 -28.578125l3.78125 0l0.703125 3.890625l0.265625 0q0.953125 -1.5 2.359375 -2.484375q1.421875 -0.984375 3.125 -1.453125q1.71875 -0.484375 3.53125 -0.484375zm29.331726 29.640625q-5.34375 0 -8.546875 -3.703125q-3.1875 -3.703125 -3.1875 -11.0625q0 -7.359375 3.21875 -11.109375q3.234375 -3.765625 8.5625 -3.765625q2.234375 0 3.890625 0.5625q1.65625 0.546875 2.875 1.515625q1.234375 0.953125 2.09375 2.125l0.3125 0q-0.046875 -0.6875 -0.1875 -2.046875q-0.125 -1.359375 -0.125 -2.15625l0 -11.421875l4.6875 0l0 40.53125l-3.78125 0l-0.703125 -3.84375l-0.203125 0q-0.859375 1.234375 -2.09375 2.21875q-1.21875 0.984375 -2.90625 1.578125q-1.671875 0.578125 -3.90625 0.578125zm0.734375 -3.890625q4.53125 0 6.375 -2.46875q1.84375 -2.484375 1.84375 -7.5l0 -0.859375q0 -5.328125 -1.765625 -8.171875q-1.75 -2.859375 -6.5 -2.859375q-3.78125 0 -5.6875 3.015625q-1.890625 3.0 -1.890625 8.078125q0 5.109375 1.890625 7.9375q1.90625 2.828125 5.734375 2.828125zm26.609253 -25.21875l0 28.578125l-4.6875 0l0 -28.578125l4.6875 0zm-2.28125 -10.71875q1.0625 0 1.890625 0.71875q0.828125 0.71875 0.828125 2.265625q0 1.484375 -0.828125 2.234375q-0.828125 0.75 -1.890625 0.75q-1.171875 0 -1.984375 -0.75q-0.796875 -0.75 -0.796875 -2.234375q0 -1.546875 0.796875 -2.265625q0.8125 -0.71875 1.984375 -0.71875zm20.899231 35.984375q1.0625 0 2.1875 -0.171875q1.125061 -0.1875 1.812561 -0.40625l0 3.578125q-0.75 0.359375 -2.140686 0.59375q-1.375 0.25 -2.65625 0.25q-2.25 0 -4.140625 -0.765625q-1.890625 -0.78125 -3.0625 -2.703125q-1.171875 -1.921875 -1.171875 -5.375l0 -16.640625l-4.046875 0l0 -2.25l4.09375 -1.859375l1.875 -6.078125l2.765625 0l0 6.5625l8.265686 0l0 3.625l-8.265686 0l0 16.53125q0 2.609375 1.25 3.859375q1.265625 1.25 3.234375 1.25zm14.39209 -25.265625l0 28.578125l-4.6875 0l0 -28.578125l4.6875 0zm-2.28125 -10.71875q1.0625 0 1.890625 0.71875q0.828125 0.71875 0.828125 2.265625q0 1.484375 -0.828125 2.234375q-0.828125 0.75 -1.890625 0.75q-1.171875 0 -1.984375 -0.75q-0.796875 -0.75 -0.796875 -2.234375q0 -1.546875 0.796875 -2.265625q0.8125 -0.71875 1.984375 -0.71875zm36.21173 24.953125q0 3.578125 -0.9375 6.328125q-0.9375 2.734375 -2.671875 4.65625q-1.734375 1.921875 -4.21875 2.90625q-2.46875 0.984375 -5.515625 0.984375q-2.828125 0 -5.234375 -0.984375q-2.390625 -0.984375 -4.15625 -2.90625q-1.75 -1.921875 -2.734375 -4.65625q-0.984375 -2.75 -0.984375 -6.328125q0 -4.75 1.59375 -8.03125q1.59375 -3.28125 4.578125 -5.0q3.0 -1.734375 7.109375 -1.734375q3.890625 0 6.84375 1.734375q2.96875 1.71875 4.640625 5.0q1.6875 3.28125 1.6875 8.03125zm-21.609375 0q0 3.359375 0.875 5.84375q0.890625 2.46875 2.75 3.8125q1.875 1.328125 4.75 1.328125q2.875 0 4.734375 -1.328125q1.875 -1.34375 2.75 -3.8125q0.890625 -2.484375 0.890625 -5.84375q0 -3.421875 -0.90625 -5.8125q-0.90625 -2.40625 -2.75 -3.703125q-1.84375 -1.3125 -4.765625 -1.3125q-4.375 0 -6.359375 2.890625q-1.96875 2.875 -1.96875 7.9375zm42.779114 -14.765625q5.109375 0 7.71875 2.484375q2.625 2.46875 2.625 8.015625l0 18.609375l-4.640625 0l0 -18.296875q0 -3.46875 -1.546875 -5.171875q-1.546875 -1.703125 -4.859375 -1.703125q-4.734375 0 -6.5625 2.671875q-1.8125 2.65625 -1.8125 7.671875l0 14.828125l-4.6875 0l0 -28.578125l3.78125 0l0.703125 3.890625l0.265625 0q0.953125 -1.5 2.359375 -2.484375q1.421875 -0.984375 3.125 -1.453125q1.71875 -0.484375 3.53125 -0.484375zm46.22827 4.15625l-7.203125 0l0 24.953125l-4.6875 0l0 -24.953125l-5.015625 0l0 -2.1875l5.015625 -1.609375l0 -1.640625q0 -3.6875 1.09375 -5.96875q1.09375 -2.296875 3.171875 -3.359375q2.078125 -1.078125 5.015625 -1.078125q1.703125 0 3.109375 0.296875q1.421875 0.296875 2.4375 0.65625l-1.234375 3.6875q-0.84375 -0.265625 -1.96875 -0.53125q-1.125 -0.265625 -2.296875 -0.265625q-2.34375 0 -3.5 1.578125q-1.140625 1.5625 -1.140625 4.921875l0 1.875l7.203125 0l0 3.625zm30.032288 10.609375q0 3.578125 -0.9375 6.328125q-0.9375 2.734375 -2.671875 4.65625q-1.734375 1.921875 -4.21875 2.90625q-2.46875 0.984375 -5.515625 0.984375q-2.828064 0 -5.234314 -0.984375q-2.390625 -0.984375 -4.15625 -2.90625q-1.75 -1.921875 -2.734375 -4.65625q-0.984375 -2.75 -0.984375 -6.328125q0 -4.75 1.59375 -8.03125q1.59375 -3.28125 4.578125 -5.0q3.0 -1.734375 7.109314 -1.734375q3.890625 0 6.84375 1.734375q2.96875 1.71875 4.640625 5.0q1.6875 3.28125 1.6875 8.03125zm-21.609314 0q0 3.359375 0.875 5.84375q0.890625 2.46875 2.75 3.8125q1.875 1.328125 4.749939 1.328125q2.875 0 4.734375 -1.328125q1.875 -1.34375 2.75 -3.8125q0.890625 -2.484375 0.890625 -5.84375q0 -3.421875 -0.90625 -5.8125q-0.90625 -2.40625 -2.75 -3.703125q-1.84375 -1.3125 -4.765625 -1.3125q-4.374939 0 -6.359314 2.890625q-1.96875 2.875 -1.96875 7.9375zm42.341614 -14.765625q0.8125 0 1.734375 0.078125q0.9375 0.078125 1.625 0.234375l-0.578125 4.3125q-0.703125 -0.15625 -1.53125 -0.25q-0.8125 -0.109375 -1.5625 -0.109375q-1.65625 0 -3.15625 0.6875q-1.484375 0.6875 -2.65625 1.953125q-1.171875 1.25 -1.84375 3.015625q-0.671875 1.75 -0.671875 3.9375l0 15.25l-4.6875 0l0 -28.578125l3.84375 0l0.53125 5.21875l0.21875 0q0.90625 -1.59375 2.171875 -2.90625q1.28125 -1.3125 2.9375 -2.078125q1.65625 -0.765625 3.625 -0.765625zm53.70227 9.703125q0 6.390625 -2.375 10.71875q-2.359375 4.3125 -6.796875 6.5q-4.421875 2.1875 -10.71875 2.1875l-10.609375 0l0 -38.078125l11.734375 0q5.765625 0 9.96875 2.140625q4.21875 2.125 6.5 6.265625q2.296875 4.125 2.296875 10.265625zm-5.0625 0.15625q0 -5.0625 -1.6875 -8.3125q-1.671875 -3.265625 -4.90625 -4.828125q-3.21875 -1.578125 -7.796875 -1.578125l-6.25 0l0 29.859375l5.171875 0q7.734375 0 11.59375 -3.8125q3.875 -3.8125 3.875 -11.328125zm26.179443 -9.859375q0.8125 0 1.734375 0.078125q0.9375 0.078125 1.625 0.234375l-0.578125 4.3125q-0.703125 -0.15625 -1.53125 -0.25q-0.8125 -0.109375 -1.5625 -0.109375q-1.65625 0 -3.15625 0.6875q-1.484375 0.6875 -2.65625 1.953125q-1.171875 1.25 -1.84375 3.015625q-0.671875 1.75 -0.671875 3.9375l0 15.25l-4.6875 0l0 -28.578125l3.84375 0l0.53125 5.21875l0.21875 0q0.90625 -1.59375 2.171875 -2.90625q1.28125 -1.3125 2.9375 -2.078125q1.65625 -0.765625 3.625 -0.765625zm4.211914 0.53125l5.015625 0l6.1875 16.265625q0.53125 1.4375 0.984375 2.765625q0.453125 1.328125 0.828125 2.59375q0.375 1.25 0.59375 2.421875l0.203125 0q0.328125 -1.328125 1.015625 -3.484375q0.703125 -2.171875 1.4375 -4.359375l5.8125 -16.203125l5.078125 0l-12.328125 32.53125q-1.015625 2.65625 -2.375 4.65625q-1.359375 2.0 -3.3125 3.09375q-1.9375 1.09375 -4.703125 1.09375q-1.28125 0 -2.25 -0.140625q-0.953125 -0.125 -1.640625 -0.28125l0 -3.734375q0.578125 0.109375 1.40625 0.203125q0.828125 0.109375 1.734375 0.109375q1.65625 0 2.84375 -0.609375q1.203125 -0.609375 2.0625 -1.765625q0.859375 -1.140625 1.4375 -2.6875l1.5 -3.78125l-11.53125 -28.6875z" fill-rule="nonzero"/><path fill="#7a621d" d="m442.22583 853.7662l-4.796875 0l0 -38.078125l21.28125 0l0 4.21875l-16.484375 0l0 13.484375l15.46875 0l0 4.21875l-15.46875 0l0 16.15625zm33.06787 -29.0625q5.21875 0 7.71875 2.296875q2.515625 2.28125 2.515625 7.296875l0 19.46875l-3.40625 0l-0.90625 -4.046875l-0.21875 0q-1.21875 1.546875 -2.53125 2.59375q-1.3125 1.03125 -3.0 1.5q-1.671875 0.484375 -4.0625 0.484375q-2.5625 0 -4.625 -0.90625q-2.046875 -0.90625 -3.21875 -2.796875q-1.171875 -1.890625 -1.171875 -4.78125q0 -4.265625 3.359375 -6.578125q3.359375 -2.328125 10.34375 -2.53125l4.859375 -0.15625l0 -1.71875q0 -3.5625 -1.546875 -4.953125q-1.546875 -1.390625 -4.375 -1.390625q-2.234375 0 -4.265625 0.671875q-2.03125 0.671875 -3.78125 1.515625l-1.453125 -3.515625q1.875 -1.015625 4.421875 -1.734375q2.5625 -0.71875 5.34375 -0.71875zm1.390625 15.25q-5.34375 0.21875 -7.390625 1.71875q-2.046875 1.484375 -2.046875 4.203125q0 2.390625 1.453125 3.515625q1.46875 1.125 3.765625 1.125q3.625 0 6.015625 -2.0q2.40625 -2.0 2.40625 -6.15625l0 -2.5625l-4.203125 0.15625zm31.026398 -15.296875q0.8125 0 1.734375 0.078125q0.9375 0.078125 1.625 0.234375l-0.578125 4.3125q-0.703125 -0.15625 -1.53125 -0.25q-0.8125 -0.109375 -1.5625 -0.109375q-1.65625 0 -3.15625 0.6875q-1.484375 0.6875 -2.65625 1.953125q-1.171875 1.25 -1.84375 3.015625q-0.671875 1.75 -0.671875 3.9375l0 15.25l-4.6875 0l0 -28.578125l3.84375 0l0.53125 5.21875l0.21875 0q0.90625 -1.59375 2.171875 -2.90625q1.28125 -1.3125 2.9375 -2.078125q1.65625 -0.765625 3.625 -0.765625zm40.055695 0q4.859375 0 7.25 2.484375q2.40625 2.46875 2.40625 8.015625l0 18.609375l-4.640625 0l0 -18.390625q0 -3.375 -1.421875 -5.078125q-1.40625 -1.703125 -4.390625 -1.703125q-4.15625 0 -5.953125 2.40625q-1.78125 2.390625 -1.78125 6.984375l0 15.78125l-4.640625 0l0 -18.390625q0 -2.25 -0.640625 -3.765625q-0.640625 -1.515625 -1.921875 -2.265625q-1.28125 -0.75 -3.296875 -0.75q-2.890625 0 -4.546875 1.203125q-1.640625 1.203125 -2.375 3.5q-0.71875 2.28125 -0.71875 5.640625l0 14.828125l-4.6875 0l0 -28.578125l3.78125 0l0.703125 3.890625l0.265625 0q0.90625 -1.5 2.203125 -2.484375q1.3125 -0.984375 2.90625 -1.453125q1.609375 -0.484375 3.3125 -0.484375q3.3125 0 5.515625 1.171875q2.21875 1.171875 3.234375 3.625l0.265625 0q1.4375 -2.453125 3.90625 -3.625q2.484375 -1.171875 5.265625 -1.171875zm23.18988 0.53125l0 28.578125l-4.6875 0l0 -28.578125l4.6875 0zm-2.28125 -10.71875q1.0625 0 1.890625 0.71875q0.828125 0.71875 0.828125 2.265625q0 1.484375 -0.828125 2.234375q-0.828125 0.75 -1.890625 0.75q-1.171875 0 -1.984375 -0.75q-0.796875 -0.75 -0.796875 -2.234375q0 -1.546875 0.796875 -2.265625q0.8125 -0.71875 1.984375 -0.71875zm25.117981 10.1875q5.109375 0 7.71875 2.484375q2.625 2.46875 2.625 8.015625l0 18.609375l-4.640625 0l0 -18.296875q0 -3.46875 -1.546875 -5.171875q-1.546875 -1.703125 -4.859375 -1.703125q-4.734375 0 -6.5625 2.671875q-1.8125 2.65625 -1.8125 7.671875l0 14.828125l-4.6875 0l0 -28.578125l3.78125 0l0.703125 3.890625l0.265625 0q0.953125 -1.5 2.359375 -2.484375q1.421875 -0.984375 3.125 -1.453125q1.71875 -0.484375 3.53125 -0.484375zm29.331726 0q2.8125 0 5.078125 1.0625q2.28125 1.0625 3.875 3.25l0.265625 0l0.640625 -3.78125l3.734375 0l0 29.0625q0 4.046875 -1.390625 6.796875q-1.390625 2.75 -4.21875 4.125q-2.8125 1.390625 -7.1875 1.390625q-3.09375 0 -5.6875 -0.453125q-2.578125 -0.453125 -4.609375 -1.359375l0 -4.3125q2.03125 1.0625 4.75 1.640625q2.71875 0.59375 5.8125 0.59375q3.671875 0 5.78125 -2.15625q2.109375 -2.15625 2.109375 -5.890625l0 -1.125q0 -0.640625 0.046875 -1.84375q0.0625 -1.203125 0.109375 -1.671875l-0.203125 0q-1.5 2.1875 -3.71875 3.25q-2.203125 1.0625 -5.140625 1.0625q-5.546875 0 -8.671875 -3.890625q-3.109375 -3.890625 -3.109375 -10.875q0 -6.828125 3.109375 -10.84375q3.125 -4.03125 8.625 -4.03125zm0.640625 3.9375q-2.40625 0 -4.09375 1.28125q-1.671875 1.28125 -2.5625 3.734375q-0.875 2.453125 -0.875 5.96875q0 5.28125 1.9375 8.078125q1.953125 2.796875 5.6875 2.796875q2.1875 0 3.734375 -0.546875q1.546875 -0.5625 2.5625 -1.765625q1.015625 -1.203125 1.484375 -3.0625q0.484375 -1.875 0.484375 -4.4375l0 -1.109375q0 -3.890625 -0.875 -6.296875q-0.875 -2.40625 -2.75 -3.515625q-1.859375 -1.125 -4.734375 -1.125z" fill-rule="nonzero"/></g></svg>