<svg version="1.1" viewBox="0.0 0.0 100.0 50.0" fill="none" stroke="none" stroke-linecap="square" stroke-miterlimit="10" xmlns:xlink="http://www.w3.org/1999/xlink" xmlns="http://www.w3.org/2000/svg"><clipPath id="p.0"><path d="m0 0l100.0 0l0 50.0l-100.0 0l0 -50.0z" clip-rule="nonzero"/></clipPath><g clip-path="url(#p.0)"><path fill="#000000" fill-opacity="0.0" d="m0 0l100.0 0l0 50.0l-100.0 0z" fill-rule="evenodd"/><path fill="#000000" fill-opacity="0.0" d="m37.32021 13.118111l60.94488 0l0 21.637794l-60.94488 0z" fill-rule="evenodd"/><path fill="#806320" d="m38.32021 19.23811l1.453125 -3.812499l0.546875 0l1.5625 3.812499l-0.578125 0l-0.4375 -1.15625l-1.59375 0l-0.421875 1.15625l-0.53125 0zm1.09375 -1.5625l1.296875 0l-0.40625 -1.0625q-0.171875 -0.484375 -0.265625 -0.78124905q-0.078125 0.35937405 -0.203125 0.71874905l-0.421875 1.125zm4.6006927 1.5625l0 -0.34375q-0.265625 0.40625 -0.765625 0.40625q-0.328125 0 -0.609375 -0.171875q-0.28125 -0.1875 -0.4375 -0.515625q-0.140625 -0.328125 -0.140625 -0.75q0 -0.421875 0.125 -0.75q0.140625 -0.34375 0.421875 -0.515625q0.28125 -0.1875 0.609375 -0.1875q0.25 0 0.4375 0.109375q0.203125 0.109375 0.328125 0.265625l0 -1.359374l0.46875 0l0 3.812499l-0.4375 0zm-1.484375 -1.375q0 0.53125 0.21875 0.796875q0.234375 0.25 0.546875 0.25q0.296875 0 0.515625 -0.25q0.21875 -0.25 0.21875 -0.765625q0 -0.5625 -0.21875 -0.828125q-0.21875 -0.265625 -0.546875 -0.265625q-0.3125 0 -0.53125 0.265625q-0.203125 0.25 -0.203125 0.796875zm4.557007 0.484375l0.46875 0.0625q-0.109375 0.421875 -0.421875 0.65625q-0.296875 0.234375 -0.78125 0.234375q-0.609375 0 -0.96875 -0.375q-0.359375 -0.375 -0.359375 -1.046875q0 -0.703125 0.359375 -1.078125q0.359375 -0.390625 0.9375 -0.390625q0.5625 0 0.90625 0.375q0.34375 0.375 0.34375 1.0625q0 0.046875 0 0.125l-2.0625 0q0.03125 0.453125 0.265625 0.703125q0.234375 0.234375 0.578125 0.234375q0.25 0 0.4375 -0.125q0.1875 -0.140625 0.296875 -0.4375zm-1.546875 -0.75l1.546875 0q-0.03125 -0.359375 -0.171875 -0.53125q-0.234375 -0.265625 -0.59375 -0.265625q-0.3125 0 -0.53125 0.21875q-0.21875 0.203125 -0.25 0.578125zm4.369507 2.703125l0 -1.359375q-0.109375 0.15625 -0.3125 0.265625q-0.1875 0.09375 -0.40625 0.09375q-0.5 0 -0.859375 -0.390625q-0.34375 -0.390625 -0.34375 -1.078125q0 -0.421875 0.140625 -0.75q0.140625 -0.328125 0.421875 -0.5q0.28125 -0.171875 0.609375 -0.171875q0.5 0 0.796875 0.4375l0 -0.375l0.421875 0l0 3.828125l-0.46875 0zm-1.4375 -2.453125q0 0.53125 0.21875 0.796875q0.21875 0.265625 0.53125 0.265625q0.3125 0 0.515625 -0.25q0.21875 -0.25 0.21875 -0.765625q0 -0.5625 -0.234375 -0.828125q-0.21875 -0.28125 -0.53125 -0.28125q-0.296875 0 -0.515625 0.265625q-0.203125 0.25 -0.203125 0.796875zm4.447632 1.390625l0 -0.40625q-0.3125 0.46875 -0.875 0.46875q-0.234375 0 -0.453125 -0.09375q-0.21875 -0.09375 -0.328125 -0.234375q-0.09375 -0.140625 -0.125 -0.34375q-0.03125 -0.140625 -0.03125 -0.4375l0 -1.71875l0.46875 0l0 1.53125q0 0.375 0.03125 0.5q0.03125 0.1875 0.171875 0.296875q0.15625 0.09375 0.359375 0.09375q0.21875 0 0.390625 -0.109375q0.1875 -0.109375 0.265625 -0.28125q0.078125 -0.1875 0.078125 -0.546875l0 -1.484375l0.46875 0l0 2.765625l-0.421875 0zm2.9632568 -0.34375q-0.265625 0.21875 -0.515625 0.3125q-0.234375 0.09375 -0.5 0.09375q-0.453125 0 -0.703125 -0.21875q-0.25 -0.21875 -0.25 -0.578125q0 -0.203125 0.09375 -0.359375q0.09375 -0.171875 0.234375 -0.265625q0.15625 -0.109375 0.34375 -0.15625q0.140625 -0.046875 0.421875 -0.078125q0.5625 -0.0625 0.828125 -0.15625q0.015625 -0.09375 0.015625 -0.125q0 -0.28125 -0.140625 -0.40625q-0.171875 -0.15625 -0.53125 -0.15625q-0.328125 0 -0.484375 0.125q-0.15625 0.109375 -0.234375 0.40625l-0.46875 -0.0625q0.0625 -0.296875 0.203125 -0.46875q0.15625 -0.1875 0.421875 -0.28125q0.265625 -0.109375 0.625 -0.109375q0.359375 0 0.578125 0.09375q0.21875 0.078125 0.328125 0.203125q0.109375 0.125 0.140625 0.3125q0.03125 0.125 0.03125 0.4375l0 0.625q0 0.65625 0.03125 0.828125q0.03125 0.171875 0.109375 0.328125l-0.484375 0q-0.078125 -0.140625 -0.09375 -0.34375zm-0.046875 -1.046875q-0.25 0.109375 -0.765625 0.1875q-0.28125 0.03125 -0.40625 0.09375q-0.109375 0.046875 -0.1875 0.15625q-0.0625 0.09375 -0.0625 0.21875q0 0.1875 0.140625 0.3125q0.140625 0.125 0.421875 0.125q0.265625 0 0.46875 -0.125q0.21875 -0.125 0.328125 -0.328125q0.0625 -0.15625 0.0625 -0.46875l0 -0.171875zm2.2288818 0.96875l0.0625 0.421875q-0.1875 0.03125 -0.34375 0.03125q-0.265625 0 -0.40625 -0.078125q-0.140625 -0.078125 -0.203125 -0.203125q-0.046875 -0.140625 -0.046875 -0.5625l0 -1.59375l-0.34375 0l0 -0.359375l0.34375 0l0 -0.68749905l0.46875 -0.28125l0 0.96874905l0.46875 0l0 0.359375l-0.46875 0l0 1.625q0 0.203125 0.015625 0.265625q0.03125 0.046875 0.078125 0.078125q0.0625 0.03125 0.171875 0.03125q0.078125 0 0.203125 -0.015625zm2.3553314 -0.46875l0.46875 0.0625q-0.109375 0.421875 -0.421875 0.65625q-0.296875 0.234375 -0.78125 0.234375q-0.609375 0 -0.96875 -0.375q-0.359375 -0.375 -0.359375 -1.046875q0 -0.703125 0.359375 -1.078125q0.359375 -0.390625 0.9375 -0.390625q0.5625 0 0.90625 0.375q0.34375 0.375 0.34375 1.0625q0 0.046875 0 0.125l-2.0625 0q0.03125 0.453125 0.265625 0.703125q0.234375 0.234375 0.578125 0.234375q0.25 0 0.4375 -0.125q0.1875 -0.140625 0.296875 -0.4375zm-1.546875 -0.75l1.546875 0q-0.03125 -0.359375 -0.171875 -0.53125q-0.234375 -0.265625 -0.59375 -0.265625q-0.3125 0 -0.53125 0.21875q-0.21875 0.203125 -0.25 0.578125z" fill-rule="nonzero"/><path fill="#806320" d="m38.742085 25.63811l0 -3.8125l2.75 0l0 0.453125l-2.25 0l0 1.15625l2.109375 0l0 0.453125l-2.109375 0l0 1.296875l2.34375 0l0 0.453125l-2.84375 0zm4.2569427 0l-1.0625 -2.765625l0.5 0l0.59375 1.65625q0.09375 0.265625 0.171875 0.5625q0.0625 -0.21875 0.171875 -0.53125l0.625 -1.6875l0.484375 0l-1.046875 2.765625l-0.4375 0zm3.6953125 -0.34375q-0.265625 0.21875 -0.515625 0.3125q-0.234375 0.09375 -0.5 0.09375q-0.453125 0 -0.703125 -0.21875q-0.25 -0.21875 -0.25 -0.578125q0 -0.203125 0.09375 -0.359375q0.09375 -0.171875 0.234375 -0.265625q0.15625 -0.109375 0.34375 -0.15625q0.140625 -0.046875 0.421875 -0.078125q0.5625 -0.0625 0.828125 -0.15625q0.015625 -0.09375 0.015625 -0.125q0 -0.28125 -0.140625 -0.40625q-0.171875 -0.15625 -0.53125 -0.15625q-0.328125 0 -0.484375 0.125q-0.15625 0.109375 -0.234375 0.40625l-0.46875 -0.0625q0.0625 -0.296875 0.203125 -0.46875q0.15625 -0.1875 0.421875 -0.28125q0.265625 -0.109375 0.625 -0.109375q0.359375 0 0.578125 0.09375q0.21875 0.078125 0.328125 0.203125q0.109375 0.125 0.140625 0.3125q0.03125 0.125 0.03125 0.4375l0 0.625q0 0.65625 0.03125 0.828125q0.03125 0.171875 0.109375 0.328125l-0.484375 0q-0.078125 -0.140625 -0.09375 -0.34375zm-0.046875 -1.046875q-0.25 0.109375 -0.765625 0.1875q-0.28125 0.03125 -0.40625 0.09375q-0.109375 0.046875 -0.1875 0.15625q-0.0625 0.09375 -0.0625 0.21875q0 0.1875 0.140625 0.3125q0.140625 0.125 0.421875 0.125q0.265625 0 0.46875 -0.125q0.21875 -0.125 0.328125 -0.328125q0.0625 -0.15625 0.0625 -0.46875l0 -0.171875zm1.1976318 2.453125l0 -3.828125l0.4375 0l0 0.359375q0.140625 -0.203125 0.328125 -0.3125q0.203125 -0.109375 0.46875 -0.109375q0.359375 0 0.625 0.1875q0.265625 0.171875 0.40625 0.515625q0.140625 0.328125 0.140625 0.71875q0 0.421875 -0.15625 0.765625q-0.140625 0.34375 -0.4375 0.53125q-0.296875 0.171875 -0.609375 0.171875q-0.234375 0 -0.421875 -0.09375q-0.1875 -0.109375 -0.3125 -0.25l0 1.34375l-0.46875 0zm0.4375 -2.421875q0 0.53125 0.203125 0.78125q0.21875 0.25 0.53125 0.25q0.3125 0 0.53125 -0.25q0.21875 -0.265625 0.21875 -0.828125q0 -0.53125 -0.21875 -0.78125q-0.203125 -0.265625 -0.515625 -0.265625q-0.296875 0 -0.53125 0.28125q-0.21875 0.265625 -0.21875 0.8125zm2.3538818 -0.015625q0 -0.78125 0.4375 -1.140625q0.34375 -0.3125 0.859375 -0.3125q0.578125 0 0.9375 0.375q0.359375 0.375 0.359375 1.03125q0 0.53125 -0.15625 0.84375q-0.15625 0.296875 -0.46875 0.46875q-0.3125 0.171875 -0.671875 0.171875q-0.578125 0 -0.9375 -0.375q-0.359375 -0.375 -0.359375 -1.0625zm0.484375 0q0 0.53125 0.234375 0.796875q0.234375 0.25 0.578125 0.25q0.359375 0 0.578125 -0.265625q0.234375 -0.265625 0.234375 -0.796875q0 -0.515625 -0.234375 -0.78125q-0.234375 -0.265625 -0.578125 -0.265625q-0.34375 0 -0.578125 0.265625q-0.234375 0.265625 -0.234375 0.796875zm3.6820068 0.953125l0.0625 0.421875q-0.1875 0.03125 -0.34375 0.03125q-0.265625 0 -0.40625 -0.078125q-0.140625 -0.078125 -0.203125 -0.203125q-0.046875 -0.140625 -0.046875 -0.5625l0 -1.59375l-0.34375 0l0 -0.359375l0.34375 0l0 -0.6875l0.46875 -0.28125l0 0.96875l0.46875 0l0 0.359375l-0.46875 0l0 1.625q0 0.203125 0.015625 0.265625q0.03125 0.046875 0.078125 0.078125q0.0625 0.03125 0.171875 0.03125q0.078125 0 0.203125 -0.015625zm0.44908142 0.421875l0 -2.765625l0.421875 0l0 0.421875q0.15625 -0.296875 0.296875 -0.390625q0.140625 -0.09375 0.296875 -0.09375q0.25 0 0.484375 0.15625l-0.15625 0.4375q-0.171875 -0.109375 -0.34375 -0.109375q-0.15625 0 -0.28125 0.09375q-0.125 0.09375 -0.171875 0.25q-0.078125 0.25 -0.078125 0.546875l0 1.453125l-0.46875 0zm3.5868073 -0.34375q-0.265625 0.21875 -0.515625 0.3125q-0.234375 0.09375 -0.5 0.09375q-0.453125 0 -0.703125 -0.21875q-0.25 -0.21875 -0.25 -0.578125q0 -0.203125 0.09375 -0.359375q0.09375 -0.171875 0.234375 -0.265625q0.15625 -0.109375 0.34375 -0.15625q0.140625 -0.046875 0.421875 -0.078125q0.5625 -0.0625 0.828125 -0.15625q0.015625 -0.09375 0.015625 -0.125q0 -0.28125 -0.140625 -0.40625q-0.171875 -0.15625 -0.53125 -0.15625q-0.328125 0 -0.484375 0.125q-0.15625 0.109375 -0.234375 0.40625l-0.46875 -0.0625q0.0625 -0.296875 0.203125 -0.46875q0.15625 -0.1875 0.421875 -0.28125q0.265625 -0.109375 0.625 -0.109375q0.359375 0 0.578125 0.09375q0.21875 0.078125 0.328125 0.203125q0.109375 0.125 0.140625 0.3125q0.03125 0.125 0.03125 0.4375l0 0.625q0 0.65625 0.03125 0.828125q0.03125 0.171875 0.109375 0.328125l-0.484375 0q-0.078125 -0.140625 -0.09375 -0.34375zm-0.046875 -1.046875q-0.25 0.109375 -0.765625 0.1875q-0.28125 0.03125 -0.40625 0.09375q-0.109375 0.046875 -0.1875 0.15625q-0.0625 0.09375 -0.0625 0.21875q0 0.1875 0.140625 0.3125q0.140625 0.125 0.421875 0.125q0.265625 0 0.46875 -0.125q0.21875 -0.125 0.328125 -0.328125q0.0625 -0.15625 0.0625 -0.46875l0 -0.171875zm1.1976318 1.390625l0 -2.765625l0.421875 0l0 0.390625q0.3125 -0.453125 0.890625 -0.453125q0.25 0 0.453125 0.09375q0.21875 0.09375 0.3125 0.234375q0.109375 0.140625 0.15625 0.34375q0.015625 0.125 0.015625 0.453125l0 1.703125l-0.46875 0l0 -1.6875q0 -0.28125 -0.0625 -0.421875q-0.046875 -0.140625 -0.1875 -0.21875q-0.140625 -0.09375 -0.328125 -0.09375q-0.296875 0 -0.515625 0.1875q-0.21875 0.1875 -0.21875 0.71875l0 1.515625l-0.46875 0zm2.7757568 -0.828125l0.46875 -0.0625q0.046875 0.265625 0.21875 0.421875q0.171875 0.140625 0.5 0.140625q0.3281212 0 0.4843712 -0.125q0.15625 -0.125 0.15625 -0.3125q0 -0.15625 -0.140625 -0.25q-0.09375 -0.0625 -0.4843712 -0.15625q-0.515625 -0.125 -0.71875 -0.21875q-0.1875 -0.09375 -0.296875 -0.265625q-0.109375 -0.171875 -0.109375 -0.375q0 -0.1875 0.078125 -0.34375q0.09375 -0.15625 0.25 -0.265625q0.109375 -0.078125 0.296875 -0.125q0.1875 -0.0625 0.40625 -0.0625q0.3124962 0 0.5624962 0.09375q0.25 0.09375 0.359375 0.265625q0.125 0.15625 0.171875 0.421875l-0.46875 0.0625q-0.03125 -0.21875 -0.1875 -0.328125q-0.140625 -0.125 -0.4062462 -0.125q-0.328125 0 -0.46875 0.109375q-0.140625 0.09375 -0.140625 0.25q0 0.078125 0.0625 0.15625q0.0625 0.078125 0.1875 0.125q0.0625 0.03125 0.40625 0.125q0.4999962 0.125 0.6874962 0.21875q0.203125 0.078125 0.3125 0.25q0.109375 0.15625 0.109375 0.390625q0 0.234375 -0.140625 0.453125q-0.125 0.203125 -0.390625 0.3125q-0.25 0.109375 -0.5781212 0.109375q-0.53125 0 -0.828125 -0.21875q-0.28125 -0.234375 -0.359375 -0.671875zm2.8515587 1.890625l0 -3.828125l0.4375 0l0 0.359375q0.140625 -0.203125 0.328125 -0.3125q0.203125 -0.109375 0.46875 -0.109375q0.359375 0 0.625 0.1875q0.265625 0.171875 0.40625 0.515625q0.140625 0.328125 0.140625 0.71875q0 0.421875 -0.15625 0.765625q-0.140625 0.34375 -0.4375 0.53125q-0.296875 0.171875 -0.609375 0.171875q-0.234375 0 -0.421875 -0.09375q-0.1875 -0.109375 -0.3125 -0.25l0 1.34375l-0.46875 0zm0.4375 -2.421875q0 0.53125 0.203125 0.78125q0.21875 0.25 0.53125 0.25q0.3125 0 0.53125 -0.25q0.21875 -0.265625 0.21875 -0.828125q0 -0.53125 -0.21875 -0.78125q-0.203125 -0.265625 -0.515625 -0.265625q-0.296875 0 -0.53125 0.28125q-0.21875 0.265625 -0.21875 0.8125zm2.5413818 -1.921875l0 -0.53125l0.46875 0l0 0.53125l-0.46875 0zm0 3.28125l0 -2.765625l0.46875 0l0 2.765625l-0.46875 0zm1.1681213 0l0 -2.765625l0.421875 0l0 0.421875q0.15625 -0.296875 0.296875 -0.390625q0.140625 -0.09375 0.296875 -0.09375q0.25 0 0.484375 0.15625l-0.15625 0.4375q-0.171875 -0.109375 -0.34375 -0.109375q-0.15625 0 -0.28125 0.09375q-0.125 0.09375 -0.171875 0.25q-0.078125 0.25 -0.078125 0.546875l0 1.453125l-0.46875 0zm3.5868073 -0.34375q-0.265625 0.21875 -0.515625 0.3125q-0.234375 0.09375 -0.5 0.09375q-0.453125 0 -0.703125 -0.21875q-0.25 -0.21875 -0.25 -0.578125q0 -0.203125 0.09375 -0.359375q0.09375 -0.171875 0.234375 -0.265625q0.15625 -0.109375 0.34375 -0.15625q0.140625 -0.046875 0.421875 -0.078125q0.5625 -0.0625 0.828125 -0.15625q0.015625 -0.09375 0.015625 -0.125q0 -0.28125 -0.140625 -0.40625q-0.171875 -0.15625 -0.53125 -0.15625q-0.328125 0 -0.484375 0.125q-0.15625 0.109375 -0.234375 0.40625l-0.46875 -0.0625q0.0625 -0.296875 0.203125 -0.46875q0.15625 -0.1875 0.421875 -0.28125q0.265625 -0.109375 0.625 -0.109375q0.359375 0 0.578125 0.09375q0.21875 0.078125 0.328125 0.203125q0.109375 0.125 0.140625 0.3125q0.03125 0.125 0.03125 0.4375l0 0.625q0 0.65625 0.03125 0.828125q0.03125 0.171875 0.109375 0.328125l-0.484375 0q-0.078125 -0.140625 -0.09375 -0.34375zm-0.046875 -1.046875q-0.25 0.109375 -0.765625 0.1875q-0.28125 0.03125 -0.40625 0.09375q-0.109375 0.046875 -0.1875 0.15625q-0.0625 0.09375 -0.0625 0.21875q0 0.1875 0.140625 0.3125q0.140625 0.125 0.421875 0.125q0.265625 0 0.46875 -0.125q0.21875 -0.125 0.328125 -0.328125q0.0625 -0.15625 0.0625 -0.46875l0 -0.171875zm2.2288818 0.96875l0.0625 0.421875q-0.1875 0.03125 -0.34375 0.03125q-0.265625 0 -0.40625 -0.078125q-0.140625 -0.078125 -0.203125 -0.203125q-0.046875 -0.140625 -0.046875 -0.5625l0 -1.59375l-0.34375 0l0 -0.359375l0.34375 0l0 -0.6875l0.46875 -0.28125l0 0.96875l0.46875 0l0 0.359375l-0.46875 0l0 1.625q0 0.203125 0.015625 0.265625q0.03125 0.046875 0.078125 0.078125q0.0625 0.03125 0.171875 0.03125q0.078125 0 0.203125 -0.015625zm0.46470642 -2.859375l0 -0.53125l0.46875 0l0 0.53125l-0.46875 0zm0 3.28125l0 -2.765625l0.46875 0l0 2.765625l-0.46875 0zm0.99624634 -1.375q0 -0.78125 0.4375 -1.140625q0.34375 -0.3125 0.859375 -0.3125q0.578125 0 0.9375 0.375q0.359375 0.375 0.359375 1.03125q0 0.53125 -0.15625 0.84375q-0.15625 0.296875 -0.46875 0.46875q-0.3125 0.171875 -0.671875 0.171875q-0.578125 0 -0.9375 -0.375q-0.359375 -0.375 -0.359375 -1.0625zm0.484375 0q0 0.53125 0.234375 0.796875q0.234375 0.25 0.578125 0.25q0.359375 0 0.578125 -0.265625q0.234375 -0.265625 0.234375 -0.796875q0 -0.515625 -0.234375 -0.78125q-0.234375 -0.265625 -0.578125 -0.265625q-0.34375 0 -0.578125 0.265625q-0.234375 0.265625 -0.234375 0.796875zm2.6507568 1.375l0 -2.765625l0.421875 0l0 0.390625q0.3125 -0.453125 0.890625 -0.453125q0.25 0 0.453125 0.09375q0.21875 0.09375 0.3125 0.234375q0.109375 0.140625 0.15625 0.34375q0.015625 0.125 0.015625 0.453125l0 1.703125l-0.46875 0l0 -1.6875q0 -0.28125 -0.0625 -0.421875q-0.046875 -0.140625 -0.1875 -0.21875q-0.140625 -0.09375 -0.328125 -0.09375q-0.296875 0 -0.515625 0.1875q-0.21875 0.1875 -0.21875 0.71875l0 1.515625l-0.46875 0z" fill-rule="nonzero"/><path fill="#806320" d="m38.78896 32.03811l0 -2.40625l-0.421875 0l0 -0.359375l0.421875 0l0 -0.296875q0 -0.265625 0.046875 -0.40625q0.0625 -0.1875 0.234375 -0.296875q0.171875 -0.109375 0.484375 -0.109375q0.1875 0 0.4375 0.046875l-0.078125 0.40625q-0.140625 -0.03125 -0.28125 -0.03125q-0.203125 0 -0.296875 0.09375q-0.09375 0.09375 -0.09375 0.34375l0 0.25l0.546875 0l0 0.359375l-0.546875 0l0 2.40625l-0.453125 0zm1.1834564 -1.375q0 -0.78125 0.4375 -1.140625q0.34375 -0.3125 0.859375 -0.3125q0.578125 0 0.9375 0.375q0.359375 0.375 0.359375 1.03125q0 0.53125 -0.15625 0.84375q-0.15625 0.296875 -0.46875 0.46875q-0.3125 0.171875 -0.671875 0.171875q-0.578125 0 -0.9375 -0.375q-0.359375 -0.375 -0.359375 -1.0625zm0.484375 0q0 0.53125 0.234375 0.796875q0.234375 0.25 0.578125 0.25q0.359375 0 0.578125 -0.265625q0.234375 -0.265625 0.234375 -0.796875q0 -0.515625 -0.234375 -0.78125q-0.234375 -0.265625 -0.578125 -0.265625q-0.34375 0 -0.578125 0.265625q-0.234375 0.265625 -0.234375 0.796875zm2.6507568 1.375l0 -2.765625l0.421875 0l0 0.421875q0.15625 -0.296875 0.296875 -0.390625q0.140625 -0.09375 0.296875 -0.09375q0.25 0 0.484375 0.15625l-0.15625 0.4375q-0.171875 -0.109375 -0.34375 -0.109375q-0.15625 0 -0.28125 0.09375q-0.125 0.09375 -0.171875 0.25q-0.078125 0.25 -0.078125 0.546875l0 1.453125l-0.46875 0zm3.3171387 0l0 -3.8125l1.3125 0q0.453125 0 0.6875 0.046875q0.328125 0.078125 0.5625 0.28125q0.296875 0.25 0.4375 0.65625q0.15625 0.390625 0.15625 0.90625q0 0.421875 -0.109375 0.765625q-0.09375 0.328125 -0.25 0.5625q-0.15625 0.21875 -0.34375 0.34375q-0.1875 0.125 -0.453125 0.1875q-0.265625 0.0625 -0.625 0.0625l-1.375 0zm0.515625 -0.453125l0.8125 0q0.375 0 0.578125 -0.0625q0.21875 -0.078125 0.359375 -0.203125q0.171875 -0.171875 0.265625 -0.46875q0.109375 -0.3125 0.109375 -0.75q0 -0.59375 -0.203125 -0.90625q-0.1875 -0.328125 -0.46875 -0.4375q-0.203125 -0.078125 -0.65625 -0.078125l-0.796875 0l0 2.90625zm3.2696838 0.453125l0 -2.765625l0.421875 0l0 0.421875q0.15625 -0.296875 0.296875 -0.390625q0.140625 -0.09375 0.296875 -0.09375q0.25 0 0.484375 0.15625l-0.15625 0.4375q-0.171875 -0.109375 -0.34375 -0.109375q-0.15625 0 -0.28125 0.09375q-0.125 0.09375 -0.171875 0.25q-0.078125 0.25 -0.078125 0.546875l0 1.453125l-0.46875 0zm1.7586823 1.0625l-0.046875 -0.4375q0.15625 0.046875 0.265625 0.046875q0.15625 0 0.25 -0.0625q0.09375 -0.046875 0.15625 -0.140625q0.046875 -0.078125 0.140625 -0.34375q0.015625 -0.046875 0.046875 -0.125l-1.0625 -2.765625l0.515625 0l0.578125 1.609375q0.109375 0.296875 0.1875 0.640625q0.09375 -0.328125 0.203125 -0.640625l0.59375 -1.609375l0.46875 0l-1.0625 2.8125q-0.171875 0.453125 -0.265625 0.625q-0.125 0.234375 -0.28125 0.34375q-0.15625 0.109375 -0.390625 0.109375q-0.125 0 -0.296875 -0.0625zm4.253769 -1.0625l0 -3.8125l2.578125 0l0 0.453125l-2.078125 0l0 1.171875l1.796875 0l0 0.453125l-1.796875 0l0 1.734375l-0.5 0zm4.9733887 -0.34375q-0.265625 0.21875 -0.515625 0.3125q-0.234375 0.09375 -0.5 0.09375q-0.453125 0 -0.703125 -0.21875q-0.25 -0.21875 -0.25 -0.578125q0 -0.203125 0.09375 -0.359375q0.09375 -0.171875 0.234375 -0.265625q0.15625 -0.109375 0.34375 -0.15625q0.140625 -0.046875 0.421875 -0.078125q0.5625 -0.0625 0.828125 -0.15625q0.015625 -0.09375 0.015625 -0.125q0 -0.28125 -0.140625 -0.40625q-0.171875 -0.15625 -0.53125 -0.15625q-0.328125 0 -0.484375 0.125q-0.15625 0.109375 -0.234375 0.40625l-0.46875 -0.0625q0.0625 -0.296875 0.203125 -0.46875q0.15625 -0.1875 0.421875 -0.28125q0.265625 -0.109375 0.625 -0.109375q0.359375 0 0.578125 0.09375q0.21875 0.078125 0.328125 0.203125q0.109375 0.125 0.140625 0.3125q0.03125 0.125 0.03125 0.4375l0 0.625q0 0.65625 0.03125 0.828125q0.03125 0.171875 0.109375 0.328125l-0.484375 0q-0.078125 -0.140625 -0.09375 -0.34375zm-0.046875 -1.046875q-0.25 0.109375 -0.765625 0.1875q-0.28125 0.03125 -0.40625 0.09375q-0.109375 0.046875 -0.1875 0.15625q-0.0625 0.09375 -0.0625 0.21875q0 0.1875 0.140625 0.3125q0.140625 0.125 0.421875 0.125q0.265625 0 0.46875 -0.125q0.21875 -0.125 0.328125 -0.328125q0.0625 -0.15625 0.0625 -0.46875l0 -0.171875zm1.1976318 1.390625l0 -2.765625l0.421875 0l0 0.421875q0.15625 -0.296875 0.296875 -0.390625q0.140625 -0.09375 0.296875 -0.09375q0.25 0 0.484375 0.15625l-0.15625 0.4375q-0.171875 -0.109375 -0.34375 -0.109375q-0.15625 0 -0.28125 0.09375q-0.125 0.09375 -0.171875 0.25q-0.078125 0.25 -0.078125 0.546875l0 1.453125l-0.46875 0zm1.7743034 0l0 -2.765625l0.421875 0l0 0.390625q0.140625 -0.203125 0.34375 -0.328125q0.21875 -0.125 0.5 -0.125q0.3125 0 0.5 0.125q0.203125 0.125 0.28125 0.359375q0.328125 -0.484375 0.84375 -0.484375q0.421875 0 0.640625 0.234375q0.21875 0.21875 0.21875 0.703125l0 1.890625l-0.46875 0l0 -1.734375q0 -0.28125 -0.046875 -0.40625q-0.046875 -0.125 -0.171875 -0.203125q-0.109375 -0.078125 -0.265625 -0.078125q-0.296875 0 -0.484375 0.203125q-0.1875 0.1875 -0.1875 0.609375l0 1.609375l-0.46875 0l0 -1.796875q0 -0.3125 -0.125 -0.46875q-0.109375 -0.15625 -0.375 -0.15625q-0.1875 0 -0.359375 0.109375q-0.171875 0.09375 -0.25 0.296875q-0.078125 0.203125 -0.078125 0.578125l0 1.4375l-0.46875 0zm4.4539948 -3.28125l0 -0.53125l0.46875 0l0 0.53125l-0.46875 0zm0 3.28125l0 -2.765625l0.46875 0l0 2.765625l-0.46875 0zm1.1681213 0l0 -2.765625l0.421875 0l0 0.390625q0.3125 -0.453125 0.890625 -0.453125q0.25 0 0.453125 0.09375q0.21875 0.09375 0.3125 0.234375q0.109375 0.140625 0.15625 0.34375q0.015625 0.125 0.015625 0.453125l0 1.703125l-0.46875 0l0 -1.6875q0 -0.28125 -0.0625 -0.421875q-0.046875 -0.140625 -0.1875 -0.21875q-0.140625 -0.09375 -0.328125 -0.09375q-0.296875 0 -0.515625 0.1875q-0.21875 0.1875 -0.21875 0.71875l0 1.515625l-0.46875 0zm2.8851318 0.234375l0.453125 0.0625q0.03125 0.203125 0.15625 0.3125q0.171875 0.125 0.484375 0.125q0.328125 0 0.5 -0.140625q0.171875 -0.125 0.234375 -0.359375q0.046875 -0.140625 0.03125 -0.59375q-0.296875 0.359375 -0.765625 0.359375q-0.5625 0 -0.875 -0.40625q-0.3125 -0.421875 -0.3125 -0.984375q0 -0.40625 0.140625 -0.734375q0.140625 -0.34375 0.40625 -0.515625q0.28125 -0.1875 0.65625 -0.1875q0.484375 0 0.796875 0.390625l0 -0.328125l0.4375 0l0 2.390625q0 0.640625 -0.140625 0.90625q-0.125 0.28125 -0.40625 0.4375q-0.28125 0.15625 -0.703125 0.15625q-0.5 0 -0.8125 -0.234375q-0.296875 -0.21875 -0.28125 -0.65625zm0.390625 -1.671875q0 0.546875 0.203125 0.796875q0.21875 0.25 0.546875 0.25q0.328125 0 0.546875 -0.25q0.21875 -0.25 0.21875 -0.78125q0 -0.5 -0.234375 -0.75q-0.21875 -0.265625 -0.53125 -0.265625q-0.3125 0 -0.53125 0.25q-0.21875 0.25 -0.21875 0.75z" fill-rule="nonzero"/><path fill="#cf8770" d="m1.320906 16.378197l0 0c0 -2.0874166 1.692186 -3.779603 3.779603 -3.779603l28.440792 0c1.0024147 0 1.9637718 0.3982067 2.6725845 1.1070204c0.7088127 0.7088127 1.1070213 1.6701698 1.1070213 2.6725826l0 15.11796c0 2.0874157 -1.6921883 3.779604 -3.7796059 3.779604l-28.440792 0c-2.0874171 0 -3.779603 -1.6921883 -3.779603 -3.779604z" fill-rule="evenodd"/></g></svg>